<svg xmlns="http://www.w3.org/2000/svg" viewBox="0 0 127.8 18.9">
  <g fill="currentColor">
    <path d="M0 0h3.3v18.9H0V0z"/>
    <path d="M71.6 0v18.9h-2.7L59.2 6.4v12.5H56V0h2.7l9.7 12.6V0h3.2z"/>
    <path d="M78.1 0h3.3v18.9h-3.3V0z"/>
    <path d="M122.6 14.8h-8.8l-1.7 4.1h-3.4L116.6 0h3.2l7.9 18.9h-3.4l-1.7-4.1zm-1.1-3.1l-3.3-8.4-3.3 8.4h6.6z"/>
    <g>
      <path d="M19.3 15.6c-3.6 0-6.2-2.6-6.2-6.2s2.6-6.2 6.2-6.2c1.9 0 3.6.8 4.7 2.1L26.3 3a9.3 9.3 0 0 0-7.1-3c-5.4 0-9.4 4-9.4 9.4s4 9.4 9.4 9.4c2.9 0 5.4-1.1 7.1-3L24 13.5a6.1 6.1 0 0 1-4.7 2.1z"/>
    </g>
    <g>
      <path d="M97.4 15.6c-3.6 0-6.2-2.6-6.2-6.2s2.6-6.2 6.2-6.2c1.9 0 3.6.8 4.7 2.1l2.4-2.4a9.3 9.3 0 0 0-7.1-3C92 0 88 4 88 9.4s4 9.4 9.4 9.4c2.9 0 5.4-1.1 7.1-3l-2.4-2.4a5.9 5.9 0 0 1-4.7 2.2z"/>
    </g>
    <g>
      <path d="M46.1 8.6l.1.9a6 6 0 0 1-6.2 6.2c-3.6 0-6.2-2.6-6.2-6.2s2.6-6.2 6.2-6.2c1.9 0 3.6.8 4.7 2.1L47 3a9.3 9.3 0 0 0-7.1-3c-5.4 0-9.4 4-9.4 9.4s4 9.4 9.4 9.4 9.4-4 9.4-9.4c0-1.3-.2-2.5-.6-3.6l-2.6 2.8z"/>
    </g>
  </g>
</svg>
