<svg width="135" height="30" viewBox="0 0 135 30" xmlns="http://www.w3.org/2000/svg">
    <path fill="currentColor" d="M15.168 29.48c-4.053 0-7.52-1.427-10.4-4.28-2.853-2.88-4.28-6.346-4.28-10.4 0-4.053 1.427-7.507 4.28-10.36 2.88-2.88 6.347-4.32 10.4-4.32 4.054 0 7.507 1.44 10.36 4.32 2.88 2.88 4.32 6.333 4.32 10.36 0 2.667-.693 5.174-2.08 7.52l8.2 6.68h-9l-3.04-2.44c-2.533 1.947-5.453 2.92-8.76 2.92Zm0-6.16a7.84 7.84 0 0 0 3.68-.92l-4.04-3.28 3.6-4.4 4.28 3.52c.48-1.173.72-2.32.72-3.44 0-2.32-.8-4.32-2.4-6-1.6-1.68-3.546-2.52-5.84-2.52-2.293 0-4.253.84-5.88 2.52-1.6 1.68-2.4 3.68-2.4 6s.8 4.32 2.4 6c1.627 1.68 3.587 2.52 5.88 2.52ZM54.934 26.28c-2.16 2.133-4.96 3.2-8.4 3.2-3.44 0-6.253-1.067-8.44-3.2-2.16-2.16-3.24-5-3.24-8.52V.6h6.36v17.24c0 1.68.48 3.014 1.44 4 .987.987 2.28 1.48 3.88 1.48s2.88-.493 3.84-1.48c.987-.986 1.48-2.32 1.48-4V.6h6.36v17.16c0 3.52-1.093 6.36-3.28 8.52ZM63.885 29V.6h6.36V29h-6.36ZM101.909 29h-5.48l-13.84-17.56V29h-6.36V.6h5.48l13.8 17.56V.6h6.4V29ZM104.869 29 117.029.6h5.76l12.16 28.4h-6.64l-2.52-6h-11.76l-2.52 6h-6.64Zm15.04-20.04-3.6 8.52h7.16l-3.56-8.52Z"/>
</svg>
