<svg width="235" height="30" viewBox="0 0 235 30" xmlns="http://www.w3.org/2000/svg">
    <path fill="currentColor" d="M7.30594 29V6.68H0.065936V0.599998H21.0259V6.68H13.7059V29H7.30594ZM20.5897 29L32.7497 0.599998H38.5097L50.6697 29H44.0297L41.5097 23H29.7497L27.2297 29H20.5897ZM35.6297 8.96L32.0297 17.48H39.1897L35.6297 8.96ZM55.2297 29V0.599998H61.5897V22.92H73.3497V29H55.2297ZM101.751 29.48C97.4573 29.48 93.8973 28.0667 91.0706 25.24C88.244 22.4133 86.8306 18.9333 86.8306 14.8C86.8306 10.6667 88.244 7.18666 91.0706 4.36C93.8973 1.53333 97.4573 0.119998 101.751 0.119998C104.924 0.119998 107.817 1.06666 110.431 2.96C113.071 4.82667 114.777 7.29333 115.551 10.36H108.631C108.017 9.05333 107.084 8.05333 105.831 7.36C104.577 6.64 103.217 6.28 101.751 6.28C99.1906 6.28 97.124 7.09333 95.5506 8.72C94.004 10.3467 93.2306 12.3733 93.2306 14.8C93.2306 17.2267 94.004 19.2533 95.5506 20.88C97.124 22.5067 99.1906 23.32 101.751 23.32C103.217 23.32 104.577 22.9733 105.831 22.28C107.084 21.56 108.017 20.5467 108.631 19.24H115.551C114.777 22.3067 113.071 24.7867 110.431 26.68C107.817 28.5467 104.924 29.48 101.751 29.48ZM117.224 29L129.384 0.599998H135.144L147.304 29H140.664L138.144 23H126.384L123.864 29H117.224ZM132.264 8.96L128.664 17.48H135.824L132.264 8.96ZM177.544 29H172.064L158.224 11.44V29H151.864V0.599998H157.344L171.144 18.16V0.599998H177.544V29ZM182.104 29L194.264 0.599998H200.024L212.184 29H205.544L203.024 23H191.264L188.744 29H182.104ZM197.144 8.96L193.544 17.48H200.704L197.144 8.96ZM216.744 29V0.599998H223.104V22.92H234.864V29H216.744Z"/>
</svg>
