<svg width="238" height="222" viewBox="0 0 238 222" xmlns="http://www.w3.org/2000/svg">
    <g fill="currentColor">
        <path fill-rule="evenodd" clip-rule="evenodd" d="M237.664 65.9764C237.664 53.9413 227.48 43.7577 215.445 43.7577H141.383L175.637 12.744C178.877 9.96668 178.877 5.33778 176.1 2.56043C173.785 -0.679803 168.693 -0.679803 165.916 2.09754L119.164 43.7577L71.9492 1.63465C69.1719 -0.679803 64.0801 -0.679803 61.7656 2.56043C58.9883 5.33778 58.9883 9.96668 62.2285 12.744L96.9453 43.7577H22.8828C10.3848 43.7577 0.664062 53.9413 0.664062 65.9764V199.289C0.664062 211.787 10.3848 221.508 22.8828 221.508H215.445C227.48 221.508 237.664 211.787 237.664 199.289V65.9764ZM222.852 199.289V65.9764C222.852 62.2733 219.148 58.5702 215.445 58.5702H22.8828C18.7168 58.5702 15.4766 62.2733 15.4766 65.9764V199.289C15.4766 203.455 18.7168 206.695 22.8828 206.695H215.445C219.148 206.695 222.852 203.455 222.852 199.289Z"/>
        <path d="M193.547 129.842C179.309 101.893 150.832 82.9082 118.664 82.9082C86.2324 82.9082 57.7559 101.893 43.5176 129.842C42.9902 130.896 42.7266 132.479 42.7266 133.797C42.7266 134.852 42.9902 136.434 43.5176 137.488C57.7559 165.438 86.2324 184.158 118.664 184.158C150.832 184.158 179.309 165.438 193.547 137.488C194.074 136.434 194.338 134.852 194.338 133.533C194.338 132.479 194.074 130.896 193.547 129.842ZM118.664 171.502C97.5703 171.502 80.6953 154.627 80.6953 133.533C80.6953 112.703 97.5703 95.5645 118.664 95.5645C139.494 95.5645 156.633 112.703 156.633 133.533V133.797C156.633 154.627 139.494 171.502 118.664 171.502Z"/>
        <path d="M118.5 111C118.5 111 114.047 111.469 112.406 111.938C113.578 113.578 114.75 116.625 114.75 118.734C114.75 124.828 109.594 129.75 103.5 129.75C101.391 129.75 98.3438 128.812 96.7031 127.641C96.2344 129.281 96 131.859 96 133.5C96 145.922 106.078 156 118.5 156C130.922 156 141 145.922 141 133.5C141 121.078 130.922 111 118.5 111Z"/>
    </g>
</svg>
