<svg width="60" height="57" viewBox="0 0 60 57" xmlns="http://www.w3.org/2000/svg">
    <g fill="currentColor">
        <path fill-rule="evenodd" clip-rule="evenodd" d="M60 17.1638C60 14.117 57.4219 11.5388 54.375 11.5388H35.625L44.2969 3.68727C45.1172 2.98415 45.1172 1.81227 44.4141 1.10915C43.8281 0.288835 42.5391 0.288836 41.8359 0.99196L30 11.5388L18.0469 0.874773C17.3438 0.288835 16.0547 0.288835 15.4688 1.10915C14.7656 1.81227 14.7656 2.98415 15.5859 3.68727L24.375 11.5388H5.625C2.46094 11.5388 0 14.117 0 17.1638V50.9138C0 54.0779 2.46094 56.5388 5.625 56.5388H54.375C57.4219 56.5388 60 54.0779 60 50.9138V17.1638ZM56.25 50.9138V17.1638C56.25 16.2263 55.3125 15.2888 54.375 15.2888H5.625C4.57031 15.2888 3.75 16.2263 3.75 17.1638V50.9138C3.75 51.9685 4.57031 52.7888 5.625 52.7888H54.375C55.3125 52.7888 56.25 51.9685 56.25 50.9138Z"/>
        <path fill-rule="evenodd" clip-rule="evenodd" d="M38.2691 34.861C37.9738 39.2904 34.3122 42.7157 29.8238 42.7157C29.4104 42.7157 28.7608 42.6567 28.2883 42.5976L25.2764 44.9599C26.7528 45.3143 28.2883 45.5505 29.8238 45.5505C37.0879 45.5505 43.4662 41.3574 46.6553 35.0973C46.7734 34.861 46.8325 34.5067 46.8325 34.2705C46.8325 33.9752 46.7734 33.6208 46.6553 33.3846C46.0647 32.2035 45.297 31.1404 44.4701 30.0774L38.2691 34.861ZM17.8351 41.1212L11.3388 46.2001C11.1025 46.3182 10.9254 46.6726 10.9254 46.9088C10.9254 47.086 11.0435 47.3813 11.1616 47.4994L12.2837 48.9758C12.4609 49.2121 12.8152 49.3892 13.0515 49.3892C13.2286 49.3892 13.5239 49.2711 13.642 49.153L48.368 22.2818C48.6042 22.1636 48.7223 21.8093 48.7223 21.5731C48.7223 21.3959 48.6632 21.1006 48.5451 20.9825L47.364 19.506C47.2459 19.2698 46.8915 19.0926 46.6553 19.0926C46.4781 19.0926 46.1828 19.2108 46.0647 19.3289L38.5644 25.1165C36.3202 23.8763 32.4224 22.9314 29.8238 22.8723C22.6188 22.8723 16.2406 27.1245 13.0515 33.3846C12.9333 33.6208 12.8743 33.9752 12.8743 34.2114C12.8743 34.5067 12.9333 34.861 13.0515 35.0973C14.0554 37.0462 16.1815 39.7038 17.8351 41.1212ZM24.5086 35.9831L22.1463 37.8139C21.6739 36.6918 21.3195 35.5107 21.3195 34.2114C21.3195 29.5459 25.1583 25.7071 29.8238 25.7071C31.5365 25.7662 33.939 26.5732 35.2383 27.6953L32.8033 29.572C32.3104 29.2348 32.1302 29.1065 31.9346 29.0092C31.7927 28.9385 31.6427 28.8842 31.3593 28.7781C30.9459 28.66 30.2372 28.5419 29.7648 28.5419C26.6938 28.5419 24.1543 31.0814 24.1543 34.1524V34.2114C24.2134 34.7429 24.3315 35.5107 24.5086 35.9831Z"/>
    </g>
</svg>
