<svg width="20" height="21" viewBox="0 0 20 21" xmlns="http://www.w3.org/2000/svg">
    <path fill="currentColor" d="M10 2.6875C14.2969 2.6875 17.8125 6.20312 17.8125 10.5C17.8125 14.8359 14.2969 18.3125 10 18.3125C5.66406 18.3125 2.1875 14.8359 2.1875 10.5C2.1875 6.20312 5.66406 2.6875 10 2.6875ZM10 0.8125C4.64844 0.8125 0.3125 5.1875 0.3125 10.5C0.3125 15.8516 4.64844 20.1875 10 20.1875C15.3125 20.1875 19.6875 15.8516 19.6875 10.5C19.6875 5.1875 15.3125 0.8125 10 0.8125ZM10 4.5625C6.71875 4.5625 4.0625 7.25781 4.0625 10.5C4.0625 13.7812 6.71875 16.4375 10 16.4375V4.5625Z"/>
</svg>
