<svg width="19" height="17" viewBox="0 0 19 17" xmlns="http://www.w3.org/2000/svg">
    <path fill="currentColor" d="M17.2617 0.375H2.63672C1.6875 0.375 0.949219 1.14844 0.949219 2.0625V4.875C0.949219 5.19141 1.19531 5.4375 1.51172 5.4375H2.07422V15C2.07422 15.6328 2.56641 16.125 3.19922 16.125H16.6992C17.2969 16.125 17.8242 15.6328 17.8242 15V5.4375H18.3867C18.668 5.4375 18.9492 5.19141 18.9492 4.875V2.0625C18.9492 1.14844 18.1758 0.375 17.2617 0.375ZM16.1367 14.4375H3.76172V5.4375H16.1367V14.4375ZM17.2617 3.75H2.63672V2.0625H17.2617V3.75ZM8.12109 8.8125H11.7773C11.9883 8.8125 12.1992 8.63672 12.1992 8.39062V7.54688C12.1992 7.33594 11.9883 7.125 11.7773 7.125H8.12109C7.875 7.125 7.69922 7.33594 7.69922 7.54688V8.39062C7.69922 8.63672 7.875 8.8125 8.12109 8.8125Z"/>
</svg>
