<svg width="15" height="13" viewBox="0 0 15 13" xmlns="http://www.w3.org/2000/svg">
    <path fill="currentColor" d="M14.1797 6.85156C14.375 6.65625 14.375 6.38281 14.1797 6.1875L8.47656 0.40625C8.28125 0.210938 7.96875 0.210938 7.8125 0.40625L7.03125 1.1875C6.83594 1.34375 6.83594 1.65625 7.03125 1.85156L11.6406 6.5L7.03125 11.1875C6.83594 11.3828 6.83594 11.6562 7.03125 11.8516L7.8125 12.6328C7.96875 12.8281 8.28125 12.8281 8.47656 12.6328L14.1797 6.85156ZM7.92969 6.1875L2.22656 0.40625C2.03125 0.210938 1.71875 0.210938 1.5625 0.40625L0.78125 1.1875C0.585938 1.34375 0.585938 1.65625 0.78125 1.85156L5.39062 6.5L0.78125 11.1875C0.585938 11.3828 0.585938 11.6562 0.78125 11.8516L1.5625 12.6328C1.71875 12.8281 2.03125 12.8281 2.22656 12.6328L7.92969 6.85156C8.125 6.65625 8.125 6.38281 7.92969 6.1875Z"/>
</svg>
