<svg width="21" height="14" viewBox="0 0 21 14" xmlns="http://www.w3.org/2000/svg">
    <path fill="currentColor" d="M13.8281 0.4375L12.8906 1.375C12.7031 1.60938 12.7031 1.9375 12.9375 2.17188L16.6875 5.78125H0.5625C0.234375 5.78125 0 6.0625 0 6.34375V7.65625C0 7.98438 0.234375 8.21875 0.5625 8.21875H16.6875L12.9375 11.875C12.7031 12.1094 12.7031 12.4375 12.8906 12.6719L13.8281 13.6094C14.0625 13.7969 14.3906 13.7969 14.625 13.6094L20.8125 7.42188C21 7.1875 21 6.85938 20.8125 6.625L14.625 0.4375C14.3906 0.25 14.0625 0.25 13.8281 0.4375Z"/>
</svg>
