<svg width="17" height="14" viewBox="0 0 17 14" xmlns="http://www.w3.org/2000/svg">
    <path fill="currentColor" d="M7.39844 1.76562C7.22266 1.58984 6.94141 1.58984 6.80078 1.76562L6.09766 2.46875C5.92188 2.60938 5.92188 2.89062 6.09766 3.06641L9.50781 6.37109H0.789062C0.542969 6.37109 0.367188 6.54688 0.367188 6.79297V7.77734C0.367188 7.98828 0.542969 8.19922 0.789062 8.19922H9.50781L6.09766 11.4688C5.92188 11.6445 5.92188 11.9258 6.09766 12.0664L6.80078 12.7695C6.94141 12.9453 7.22266 12.9453 7.39844 12.7695L12.6016 7.56641C12.7773 7.39062 12.7773 7.14453 12.6016 6.96875L7.39844 1.76562ZM14.2891 0.921875V13.5781C14.2891 13.8242 14.4648 14 14.7109 14H15.6953C15.9062 14 16.1172 13.8242 16.1172 13.5781V0.921875C16.1172 0.710938 15.9062 0.5 15.6953 0.5H14.7109C14.4648 0.5 14.2891 0.710938 14.2891 0.921875Z"/>
</svg>
