<svg width="16" height="17" viewBox="0 0 16 17" xmlns="http://www.w3.org/2000/svg">
    <path fill="currentColor" d="M14.082 8.25C15.9805 5.33203 16.4375 2.58984 15.0312 1.21875C13.6602 -0.1875 10.918 0.269531 8 2.16797C5.04688 0.269531 2.30469 -0.1875 0.933594 1.21875C-0.472656 2.58984 -0.015625 5.33203 1.88281 8.25C-0.015625 11.2031 -0.472656 13.9453 0.933594 15.3164C3.07812 17.4609 7.33203 14.7891 8 14.3672C8.63281 14.7891 12.8867 17.4609 15.0312 15.3164C16.4375 13.9453 15.9805 11.2031 14.082 8.25ZM2.9375 6.77344C1.74219 4.66406 1.53125 2.97656 2.09375 2.37891C2.90234 1.60547 5.01172 2.37891 6.48828 3.22266C5.39844 4.10156 3.81641 5.68359 2.9375 6.77344ZM6.48828 13.2773C4.37891 14.5078 2.69141 14.7188 2.09375 14.1211C1.53125 13.5234 1.74219 11.8711 2.9375 9.76172C3.81641 10.8516 5.39844 12.4336 6.48828 13.2773ZM12.0078 8.25C10.8477 9.86719 9.58203 11.1328 7.96484 12.293C6.38281 11.1328 5.15234 9.86719 3.95703 8.25C4.90625 6.98438 6.69922 5.15625 7.96484 4.20703C9.26562 5.15625 11.0586 6.98438 12.0078 8.25ZM9.125 8.25C9.125 7.65234 8.59766 7.125 8 7.125H7.96484C7.36719 7.125 6.83984 7.65234 6.83984 8.25C6.83984 8.88281 7.36719 9.375 7.96484 9.375C8.59766 9.375 9.125 8.88281 9.125 8.25ZM13.0273 9.76172C14.2227 11.8711 14.4336 13.5234 13.8711 14.1211C13.2734 14.7188 11.5859 14.5078 9.47656 13.2773C10.5664 12.4336 12.1484 10.8516 13.0273 9.76172ZM9.47656 3.22266C10.9531 2.37891 13.0625 1.60547 13.8711 2.37891C14.4336 2.97656 14.2227 4.66406 13.0273 6.77344C12.1484 5.68359 10.5664 4.10156 9.47656 3.22266Z"/>
</svg>
