<svg width="20" height="23" viewBox="0 0 20 23" xmlns="http://www.w3.org/2000/svg">
    <path fill="currentColor" d="M19.2383 16.3477C18.4219 15.4453 16.832 14.1133 16.832 9.6875C16.832 6.37891 14.5117 3.71484 11.332 3.02734V2.125C11.332 1.39453 10.7305 0.75 10 0.75C9.22656 0.75 8.625 1.39453 8.625 2.125V3.02734C5.44531 3.71484 3.125 6.37891 3.125 9.6875C3.125 14.1133 1.53516 15.4453 0.71875 16.3477C0.460938 16.6055 0.332031 16.9492 0.375 17.25C0.375 17.9805 0.890625 18.625 1.75 18.625H18.207C19.0664 18.625 19.582 17.9805 19.625 17.25C19.625 16.9492 19.4961 16.6055 19.2383 16.3477ZM3.25391 16.5625C4.15625 15.4023 5.14453 13.3828 5.1875 9.73047C5.1875 9.73047 5.1875 9.73047 5.1875 9.6875C5.1875 7.06641 7.33594 4.875 10 4.875C12.6211 4.875 14.8125 7.06641 14.8125 9.6875C14.8125 9.73047 14.7695 9.73047 14.7695 9.73047C14.8125 13.3828 15.8008 15.4023 16.7031 16.5625H3.25391ZM10 22.75C11.5039 22.75 12.707 21.5469 12.707 20H7.25C7.25 21.5469 8.45312 22.75 10 22.75Z"/>
</svg>
