<svg width="23" height="19" viewBox="0 0 23 19" xmlns="http://www.w3.org/2000/svg">
    <path fill="currentColor" d="M0.496094 16.8438L21.4844 0.390625C21.7305 0.179688 22.082 0.25 22.293 0.460938L22.6445 0.917969C22.8555 1.16406 22.7852 1.51562 22.5391 1.69141L1.51562 18.1445C1.30469 18.3555 0.953125 18.2852 0.742188 18.0391L0.390625 17.6172C0.179688 17.3711 0.25 17.0195 0.496094 16.8438ZM17.0195 13.1875C16.4219 12.4141 15.7891 11.2539 15.5781 9.32031L17.1602 8.05469C17.2656 11.2539 18.4609 12.3086 19.0938 13.0117C19.3047 13.2227 19.4102 13.5039 19.375 13.75C19.375 14.3477 18.9531 14.875 18.25 14.875H8.44141L10.5859 13.1875H17.0195ZM11.5 3.625C9.35547 3.625 7.5625 5.41797 7.5625 7.5625C7.5625 7.59766 7.59766 7.59766 7.59766 7.59766C7.59766 8.19531 7.52734 8.72266 7.49219 9.21484L5.38281 10.832C5.69922 10.0586 5.91016 9.03906 5.91016 7.5625C5.91016 4.85547 7.80859 2.67578 10.4102 2.11328V1.375C10.4102 0.777344 10.9023 0.25 11.5 0.25C12.1328 0.25 12.625 0.777344 12.625 1.375V2.11328C13.5391 2.32422 14.3828 2.71094 15.0859 3.27344L13.7148 4.32812C13.082 3.90625 12.3438 3.625 11.5 3.625ZM11.5 18.25C10.2695 18.25 9.28516 17.2656 9.28516 16H13.75C13.75 17.2656 12.7656 18.25 11.5 18.25Z"/>
</svg>
