<svg width="16" height="19" viewBox="0 0 16 19" xmlns="http://www.w3.org/2000/svg">
    <path fill="currentColor" d="M15.3125 3.0625H12.3945L11.1992 1.09375C10.918 0.636719 10.2852 0.25 9.75781 0.25H6.20703C5.67969 0.25 5.04688 0.636719 4.76562 1.09375L3.57031 3.0625H0.6875C0.371094 3.0625 0.125 3.34375 0.125 3.625V4.1875C0.125 4.50391 0.371094 4.75 0.6875 4.75H1.25L1.98828 16.668C2.02344 17.5469 2.79688 18.25 3.67578 18.25H12.2891C13.168 18.25 13.9414 17.5469 13.9766 16.668L14.75 4.75H15.3125C15.5938 4.75 15.875 4.50391 15.875 4.1875V3.625C15.875 3.34375 15.5938 3.0625 15.3125 3.0625ZM6.20703 1.9375H9.75781L10.4258 3.0625H5.53906L6.20703 1.9375ZM12.2891 16.5625H3.67578L2.9375 4.75H13.0273L12.2891 16.5625Z"/>
</svg>
