<svg width="11" height="14" viewBox="0 0 11 14" xmlns="http://www.w3.org/2000/svg">
    <path fill="currentColor" d="M8.34345 6.22852C8.95868 5.67188 9.45673 4.5293 9.45673 3.67969C9.45673 1.74609 7.8747 0.164062 5.9411 0.164062H0.55048C0.286808 0.164062 0.0817299 0.398438 0.0817299 0.632812V1.10156C0.0817299 1.36523 0.286808 1.57031 0.55048 1.57031H1.01923V11.8828H0.55048C0.286808 11.8828 0.0817299 12.1172 0.0817299 12.3516V12.8203C0.0817299 13.084 0.286808 13.2891 0.55048 13.2891H6.64423C8.69501 13.2891 10.3942 11.6191 10.3942 9.53906C10.3942 8.10352 9.54462 6.87305 8.34345 6.22852ZM2.89423 1.57031H5.47235C6.61493 1.57031 7.58173 2.53711 7.58173 3.67969C7.58173 4.85156 6.61493 5.78906 5.47235 5.78906H2.89423V1.57031ZM6.17548 11.8828H2.89423V7.19531H6.17548C7.46454 7.19531 8.51923 8.25 8.51923 9.53906C8.51923 10.8574 7.46454 11.8828 6.17548 11.8828Z"/>
</svg>
