<svg width="23" height="19" viewBox="0 0 23 19" xmlns="http://www.w3.org/2000/svg">
    <path fill="currentColor" d="M20.0769 0.384766C19.655 0.384766 14.6277 0.630859 11.6042 2.38867C8.54565 0.630859 3.51831 0.384766 3.09644 0.384766C1.58472 0.384766 0.354248 1.61523 0.354248 3.0918V14.1309C0.354248 15.5371 1.47925 16.7324 2.92065 16.8027C4.22144 16.873 7.45581 17.1543 9.53003 18.1738C9.81128 18.3145 10.1277 18.3848 10.4441 18.3848H12.7292C13.0457 18.3848 13.3621 18.3145 13.6433 18.1738C15.7175 17.1543 18.9519 16.873 20.2527 16.8027C21.6941 16.7324 22.8542 15.5371 22.8542 14.1309V3.0918C22.8542 1.61523 21.5886 0.384766 20.0769 0.384766ZM10.7605 15.8184C10.7605 16.2051 10.3738 16.4863 9.98706 16.3457C7.73706 15.4668 4.573 15.2207 3.02612 15.1152C2.46362 15.0801 2.04175 14.6582 2.04175 14.1309V3.0918C2.04175 2.5293 2.49878 2.07227 3.09644 2.07227C3.7644 2.10742 7.52612 2.35352 10.0574 3.51367C10.4792 3.68945 10.7253 4.11133 10.7253 4.5332L10.7605 8.25977V15.8184ZM21.1667 14.1309C21.1667 14.6582 20.7097 15.0801 20.1472 15.1152C18.6003 15.2207 15.4363 15.4668 13.1863 16.3457C12.7996 16.4863 12.448 16.2051 12.448 15.8184V8.25977V4.5332C12.448 4.11133 12.6941 3.68945 13.116 3.51367C15.6472 2.35352 19.4089 2.10742 20.0769 2.07227C20.6746 2.07227 21.1667 2.5293 21.1667 3.0918V14.1309Z"/>
</svg>
