<svg width="13" height="15" viewBox="0 0 13 15" xmlns="http://www.w3.org/2000/svg">
    <path fill="currentColor" d="M5.625 2.5C5.625 2.99219 6.00781 3.375 6.5 3.375C6.96484 3.375 7.375 3.01953 7.375 2.28125C7.375 1.57031 6.82812 0.75 6.5 0.75C6.5 1.87109 5.625 1.65234 5.625 2.5ZM10 3.375C10.4648 3.375 10.875 3.01953 10.875 2.28125C10.875 1.57031 10.3281 0.75 10 0.75C10 1.87109 9.125 1.65234 9.125 2.5C9.125 2.99219 9.50781 3.375 10 3.375ZM12.625 8.1875C12.625 7.47656 12.0234 6.875 11.3125 6.875H10.6562V3.8125H9.34375V6.875H7.15625V3.8125H5.84375V6.875H3.65625V3.8125H2.34375V6.875H1.6875C0.949219 6.875 0.375 7.47656 0.375 8.1875V14.75H12.625V8.1875ZM1.6875 8.35156C1.6875 8.26953 1.74219 8.1875 1.85156 8.1875L11.1484 8.21484C11.2305 8.21484 11.3125 8.26953 11.3125 8.37891V9.91016C11.0664 10.1016 10.875 10.2656 10.5742 10.2656C9.89062 10.2656 9.75391 9.39062 8.52344 9.39062C7.32031 9.39062 7.18359 10.2656 6.5 10.2656C5.81641 10.2656 5.65234 9.39062 4.44922 9.39062C3.21875 9.39062 3.10938 10.2656 2.39844 10.2656C2.09766 10.2656 1.90625 10.1016 1.6875 9.91016V8.35156ZM11.3125 13.4375H1.6875V11.25C1.87891 11.332 2.09766 11.3594 2.39844 11.3594C3.62891 11.3594 3.73828 10.4844 4.44922 10.4844C5.13281 10.4844 5.29688 11.3594 6.5 11.3594C7.70312 11.3594 7.83984 10.4844 8.52344 10.4844C9.23438 10.4844 9.34375 11.3594 10.5742 11.3594C10.875 11.3594 11.0938 11.332 11.3125 11.25V13.4375ZM3 3.375C3.46484 3.375 3.875 3.01953 3.875 2.28125C3.875 1.57031 3.32812 0.75 3 0.75C3 1.87109 2.125 1.65234 2.125 2.5C2.125 2.99219 2.50781 3.375 3 3.375Z"/>
</svg>
