<svg width="25" height="22" viewBox="0 0 25 22" xmlns="http://www.w3.org/2000/svg">
    <path fill="currentColor" d="M16.5312 5.75H22.25V19.25H2.75V5.75H8.42188L9.54688 2.75H15.4062L16.5312 5.75ZM15.6875 0.5H9.54688C8.60938 0.5 7.76562 1.10938 7.4375 2L6.875 3.5H2.75C1.48438 3.5 0.5 4.53125 0.5 5.75V19.25C0.5 20.5156 1.48438 21.5 2.75 21.5H22.25C23.4688 21.5 24.5 20.5156 24.5 19.25V5.75C24.5 4.53125 23.4688 3.5 22.25 3.5H18.125L17.4219 1.71875C17.1406 1.01562 16.4844 0.5 15.6875 0.5ZM12.5 18.125C15.5938 18.125 18.125 15.6406 18.125 12.5C18.125 9.40625 15.5938 6.875 12.5 6.875C9.35938 6.875 6.875 9.40625 6.875 12.5C6.875 15.6406 9.35938 18.125 12.5 18.125ZM12.5 9.125C14.3281 9.125 15.875 10.6719 15.875 12.5C15.875 14.375 14.3281 15.875 12.5 15.875C10.625 15.875 9.125 14.375 9.125 12.5C9.125 10.6719 10.625 9.125 12.5 9.125Z"/>
</svg>
