<svg width="41" height="28" viewBox="0 0 41 28" xmlns="http://www.w3.org/2000/svg">
    <path fill="currentColor" d="M13.0781 6.60938L12.3047 5.83594C12.0938 5.625 11.7422 5.48438 11.5312 5.48438C11.1797 5.48438 10.8281 5.69531 10.6172 5.90625C9.07031 7.73438 7.80469 11.1797 7.80469 13.5C7.80469 15.8906 9.07031 19.3359 10.6172 21.1641C10.8281 21.375 11.1797 21.5859 11.5312 21.5859C11.7422 21.5859 12.0937 21.4453 12.3047 21.2344L13.0781 20.4609C13.2891 20.3203 13.4297 19.9688 13.4297 19.6875C13.4297 19.4766 13.3594 19.1953 13.2187 19.0547C12.0937 17.7188 11.25 15.2578 11.25 13.5C11.25 11.8125 12.0938 9.35156 13.2188 8.01562C13.3594 7.875 13.4297 7.59375 13.4297 7.38281C13.4297 7.10156 13.2891 6.75 13.0781 6.60938ZM7.52344 1.125L6.75 0.351562C6.53906 0.210938 6.1875 0.0703125 5.90625 0.0703125C5.625 0.0703125 5.27344 0.210938 5.0625 0.421875C1.75781 4.00781 0 8.64844 0 13.5C0 18.4219 1.75781 22.9922 5.0625 26.6484C5.27344 26.8594 5.625 27.0703 5.90625 27.0703C6.1875 27.0703 6.53906 26.9297 6.75 26.7188L7.52344 25.9453C7.94531 25.5234 7.94531 24.8906 7.52344 24.3984C5.20312 21.8672 3.375 17.0156 3.375 13.5703C3.375 10.125 5.20312 5.20312 7.52344 2.67188C7.94531 2.17969 7.94531 1.54688 7.52344 1.125ZM35.3672 0.421875C35.1562 0.210938 34.8047 0 34.5234 0C34.2422 0 33.8906 0.140625 33.75 0.351563L32.9062 1.125C32.4844 1.54688 32.4844 2.17969 32.9062 2.67188C35.2266 5.20313 37.0547 10.0547 37.0547 13.5703C37.0547 17.0156 35.2266 21.8672 32.9062 24.3984C32.4844 24.8906 32.4844 25.5234 32.9062 25.9453L33.75 26.7188C33.8906 26.8594 34.2422 27 34.5234 27C34.8047 27 35.1562 26.8594 35.3672 26.6484C38.6719 22.9922 40.5 18.4219 40.5 13.5C40.5 8.64844 38.6719 4.00781 35.3672 0.421875ZM20.25 9.5625C18.0703 9.5625 16.3125 11.3906 16.3125 13.5C16.3125 15.6797 18.0703 17.4375 20.25 17.4375C22.3594 17.4375 24.1875 15.6797 24.1875 13.5C24.1875 11.3906 22.3594 9.5625 20.25 9.5625ZM28.125 5.83594L27.3516 6.60938C27.1406 6.75 27 7.10156 27 7.38281C27 7.59375 27.0703 7.875 27.2109 8.01563C28.3359 9.35156 29.1797 11.8125 29.1797 13.5C29.1797 15.2578 28.3359 17.7188 27.2109 19.0547C27.0703 19.1953 27 19.4766 27 19.6875C27 19.9688 27.1406 20.3203 27.3516 20.4609L28.125 21.2344C28.3359 21.4453 28.6875 21.5859 28.8984 21.5859C29.25 21.5859 29.6016 21.375 29.8125 21.1641C31.3594 19.3359 32.625 15.8906 32.625 13.5C32.625 11.1797 31.3594 7.73438 29.8125 5.90625C29.6016 5.69531 29.25 5.48438 28.8984 5.48438C28.6875 5.48438 28.3359 5.625 28.125 5.83594Z"/>
</svg>
