<svg width="23" height="20" viewBox="0 0 23 20" xmlns="http://www.w3.org/2000/svg">
    <path fill="currentColor" d="M7.1875 7.6875C6.41406 7.6875 5.8125 8.33203 5.8125 9.0625C5.8125 9.83594 6.41406 10.4375 7.1875 10.4375C7.91797 10.4375 8.5625 9.83594 8.5625 9.0625C8.5625 8.33203 7.91797 7.6875 7.1875 7.6875ZM12 7.6875C11.2266 7.6875 10.625 8.33203 10.625 9.0625C10.625 9.83594 11.2266 10.4375 12 10.4375C12.7305 10.4375 13.375 9.83594 13.375 9.0625C13.375 8.33203 12.7305 7.6875 12 7.6875ZM16.8125 7.6875C16.0391 7.6875 15.4375 8.33203 15.4375 9.0625C15.4375 9.83594 16.0391 10.4375 16.8125 10.4375C17.543 10.4375 18.1875 9.83594 18.1875 9.0625C18.1875 8.33203 17.543 7.6875 16.8125 7.6875ZM12 0.125C5.89844 0.125 1 4.16406 1 9.0625C1 11.125 1.81641 13.0156 3.23438 14.5195C2.63281 16.1953 1.30078 17.6562 1.25781 17.6562C0.957031 17.957 0.914062 18.3867 1.04297 18.7734C1.21484 19.1602 1.60156 19.375 2.03125 19.375C4.65234 19.375 6.75781 18.3008 8.00391 17.3984C9.25 17.7852 10.582 18 12 18C18.0586 18 23 14.0039 23 9.0625C23 4.16406 18.0586 0.125 12 0.125ZM12 15.9375C10.8398 15.9375 9.67969 15.7656 8.60547 15.4219L7.61719 15.1211L6.80078 15.7227C6.19922 16.1523 5.33984 16.625 4.30859 16.9688C4.65234 16.4531 4.95312 15.8516 5.16797 15.25L5.64062 14.0469L4.73828 13.1016C3.96484 12.2852 3.0625 10.9102 3.0625 9.0625C3.0625 5.28125 7.05859 2.1875 12 2.1875C16.8984 2.1875 20.9375 5.28125 20.9375 9.0625C20.9375 12.8867 16.8984 15.9375 12 15.9375Z"/>
</svg>
