<svg width="19" height="19" viewBox="0 0 19 19" xmlns="http://www.w3.org/2000/svg">
    <path fill="currentColor" d="M13.8721 0.817383H5.99707C5.04785 0.817383 4.30957 1.59082 4.30957 2.50488V17.1299C4.30957 18.0791 5.04785 18.8174 5.99707 18.8174H13.8721C14.8213 18.8174 15.5596 18.0791 15.5596 17.1299V2.50488C15.5596 1.59082 14.8213 0.817383 13.8721 0.817383ZM13.8721 16.8838C13.8721 17.0244 13.7666 17.1299 13.6611 17.1299H6.20801C6.06738 17.1299 5.99707 17.0244 5.99707 16.8838V2.71582C5.99707 2.61035 6.06738 2.50488 6.20801 2.50488H13.6611C13.7666 2.50488 13.8721 2.61035 13.8721 2.71582V16.8838ZM18.9346 4.54395C18.9346 4.43848 18.8291 4.33301 18.7236 4.33301H18.0908V4.12207C18.0908 4.0166 17.9854 3.91113 17.8799 3.91113H16.4033V5.59863H17.8799C17.9854 5.59863 18.0908 5.52832 18.0908 5.3877V5.17676H18.7236C18.8291 5.17676 18.9346 5.10645 18.9346 4.96582V4.54395ZM18.9346 7.91895C18.9346 7.81348 18.8291 7.70801 18.7236 7.70801H18.0908V7.49707C18.0908 7.3916 17.9854 7.28613 17.8799 7.28613H16.4033V8.97363H17.8799C17.9854 8.97363 18.0908 8.90332 18.0908 8.7627V8.55176H18.7236C18.8291 8.55176 18.9346 8.48145 18.9346 8.34082V7.91895ZM18.9346 11.2939C18.9346 11.1885 18.8291 11.083 18.7236 11.083H18.0908V10.8721C18.0908 10.7666 17.9854 10.6611 17.8799 10.6611H16.4033V12.3486H17.8799C17.9854 12.3486 18.0908 12.2783 18.0908 12.1377V11.9268H18.7236C18.8291 11.9268 18.9346 11.8564 18.9346 11.7158V11.2939ZM18.9346 14.6689C18.9346 14.5635 18.8291 14.458 18.7236 14.458H18.0908V14.2471C18.0908 14.1416 17.9854 14.0361 17.8799 14.0361H16.4033V15.7236H17.8799C17.9854 15.7236 18.0908 15.6533 18.0908 15.5127V15.3018H18.7236C18.8291 15.3018 18.9346 15.2314 18.9346 15.0908V14.6689ZM1.98926 14.0361C1.84863 14.0361 1.77832 14.1416 1.77832 14.2471V14.458H1.14551C1.00488 14.458 0.93457 14.5635 0.93457 14.6689V15.0908C0.93457 15.2314 1.00488 15.3018 1.14551 15.3018H1.77832V15.5127C1.77832 15.6533 1.84863 15.7236 1.98926 15.7236H3.46582V14.0361H1.98926ZM1.98926 10.6611C1.84863 10.6611 1.77832 10.7666 1.77832 10.8721V11.083H1.14551C1.00488 11.083 0.93457 11.1885 0.93457 11.2939V11.7158C0.93457 11.8564 1.00488 11.9268 1.14551 11.9268H1.77832V12.1377C1.77832 12.2783 1.84863 12.3486 1.98926 12.3486H3.46582V10.6611H1.98926ZM1.98926 7.28613C1.84863 7.28613 1.77832 7.3916 1.77832 7.49707V7.70801H1.14551C1.00488 7.70801 0.93457 7.81348 0.93457 7.91895V8.34082C0.93457 8.48145 1.00488 8.55176 1.14551 8.55176H1.77832V8.7627C1.77832 8.90332 1.84863 8.97363 1.98926 8.97363H3.46582V7.28613H1.98926ZM1.98926 3.91113C1.84863 3.91113 1.77832 4.0166 1.77832 4.12207V4.33301H1.14551C1.00488 4.33301 0.93457 4.43848 0.93457 4.54395V4.96582C0.93457 5.10645 1.00488 5.17676 1.14551 5.17676H1.77832V5.3877C1.77832 5.52832 1.84863 5.59863 1.98926 5.59863H3.46582V3.91113H1.98926Z"/>
</svg>
