<svg width="12" height="12" viewBox="0 0 12 12" xmlns="http://www.w3.org/2000/svg">
    <path fill="currentColor" d="M6 0.1875C2.78906 0.1875 0.1875 2.78906 0.1875 6C0.1875 9.21094 2.78906 11.8125 6 11.8125C9.21094 11.8125 11.8125 9.21094 11.8125 6C11.8125 2.78906 9.21094 0.1875 6 0.1875ZM6 10.6875C3.39844 10.6875 1.3125 8.60156 1.3125 6C1.3125 3.42188 3.39844 1.3125 6 1.3125C8.57812 1.3125 10.6875 3.42188 10.6875 6C10.6875 8.60156 8.57812 10.6875 6 10.6875ZM7.42969 8.25C7.57031 8.34375 7.73438 8.32031 7.82812 8.17969L8.27344 7.59375C8.36719 7.45312 8.34375 7.28906 8.20312 7.19531L6.65625 6.04688V2.71875C6.65625 2.57812 6.51562 2.4375 6.375 2.4375H5.625C5.46094 2.4375 5.34375 2.57812 5.34375 2.71875V6.58594C5.34375 6.65625 5.36719 6.75 5.4375 6.79688L7.42969 8.25Z"/>
</svg>
