<svg width="22" height="22" viewBox="0 0 22 22" xmlns="http://www.w3.org/2000/svg">
    <path fill="currentColor" d="M13.3067 10.9656L20.3991 3.9421L21.8451 2.49609C22.0516 2.28952 22.0516 1.94523 21.8451 1.6698L20.3302 0.15493C20.0548 -0.0516432 19.7105 -0.0516432 19.5039 0.15493L11.0344 8.69327L2.49609 0.15493C2.28952 -0.0516432 1.94523 -0.0516432 1.6698 0.15493L0.15493 1.6698C-0.0516432 1.94523 -0.0516432 2.28952 0.15493 2.49609L8.69327 10.9656L0.15493 19.5039C-0.0516432 19.7105 -0.0516432 20.0548 0.15493 20.3302L1.6698 21.8451C1.94523 22.0516 2.28952 22.0516 2.49609 21.8451L11.0344 13.3067L18.0579 20.3991L19.5039 21.8451C19.7105 22.0516 20.0548 22.0516 20.3302 21.8451L21.8451 20.3302C22.0516 20.0548 22.0516 19.7105 21.8451 19.5039L13.3067 10.9656Z"/>
</svg>
