<svg width="18" height="16" viewBox="0 0 18 16" xmlns="http://www.w3.org/2000/svg">
    <path fill="currentColor" d="M7.1872 15.2266C7.33368 15.2559 7.45087 15.1973 7.48017 15.0801L11.611 0.871094C11.6403 0.753906 11.5817 0.607422 11.4645 0.578125L10.322 0.255859C10.2048 0.226562 10.0583 0.285156 10.029 0.402344L5.89814 14.6113C5.86884 14.7285 5.92743 14.875 6.07392 14.9043L7.1872 15.2266ZM4.75556 11.6816L5.54657 10.832C5.63446 10.7441 5.63446 10.5977 5.54657 10.5098L2.4411 7.72656L5.54657 4.97266C5.63446 4.88477 5.63446 4.73828 5.54657 4.65039L4.75556 3.80078C4.66767 3.71289 4.52118 3.68359 4.43329 3.77148L0.390324 7.58008C0.302433 7.66797 0.302433 7.81445 0.390324 7.90234L4.43329 11.6816C4.52118 11.7695 4.66767 11.7695 4.75556 11.6816ZM13.0759 11.6816L17.1188 7.90234C17.2067 7.81445 17.2067 7.66797 17.1188 7.58008L13.0759 3.77148C12.988 3.68359 12.8415 3.71289 12.7536 3.80078L11.9626 4.65039C11.8747 4.73828 11.8747 4.88477 11.9626 4.97266L15.0681 7.72656L11.9626 10.5098C11.8747 10.5977 11.8747 10.7441 11.9626 10.832L12.7536 11.6816C12.8415 11.7695 12.988 11.7695 13.0759 11.6816Z"/>
</svg>
