<svg width="22" height="17" viewBox="0 0 22 17" xmlns="http://www.w3.org/2000/svg">
    <path fill="currentColor" d="M19.5781 12.8555C20.5273 11.9063 21.125 10.7109 21.125 9.375C21.125 6.5625 18.418 4.24219 14.9023 3.85547C13.8125 1.81641 11.2109 0.375 8.1875 0.375C4.14453 0.375 0.875 2.90625 0.875 6C0.875 7.30078 1.4375 8.49609 2.42187 9.48047C1.85937 10.5352 1.08594 11.3789 1.08594 11.4141C0.875 11.625 0.804687 11.9766 0.910156 12.293C1.05078 12.5742 1.33203 12.7852 1.68359 12.7852C3.54687 12.7852 5.05859 12.0469 6.07812 11.4141C6.39453 11.4844 6.74609 11.5195 7.0625 11.5898C8.1875 13.5938 10.7539 15 13.8125 15C14.5156 15 15.2188 14.9297 15.8867 14.7891C16.9062 15.4219 18.418 16.125 20.3164 16.125C20.6328 16.125 20.9141 15.9492 21.0547 15.6328C21.1602 15.3516 21.125 15 20.8789 14.7539C20.8789 14.7539 20.1055 13.9102 19.5781 12.8555ZM5.76172 9.58594L5.16406 9.97266C4.67187 10.3242 4.14453 10.5703 3.65234 10.7461C3.72266 10.5703 3.82812 10.3945 3.93359 10.2188L4.46094 9.12891L3.58203 8.25C3.125 7.79297 2.5625 7.01953 2.5625 6C2.5625 3.89062 5.12891 2.0625 8.1875 2.0625C11.2109 2.0625 13.8125 3.89063 13.8125 6C13.8125 8.14453 11.2109 9.9375 8.1875 9.9375C7.58984 9.9375 7.02734 9.90234 6.46484 9.76172L5.76172 9.58594ZM18.3828 11.625L17.5039 12.5039L18.0664 13.5938C18.1367 13.7695 18.2422 13.9453 18.3477 14.1211C17.8203 13.9453 17.3281 13.6641 16.8359 13.3477L16.2031 12.9609L15.5352 13.1367C14.9727 13.2773 14.375 13.3125 13.8125 13.3125C11.9141 13.3125 10.1914 12.6094 9.17188 11.5898C12.7578 11.2031 15.5 8.84766 15.5 6C15.5 5.89453 15.4648 5.78906 15.4648 5.64844C17.7148 6.17578 19.4375 7.65234 19.4375 9.375C19.4375 10.3945 18.8398 11.168 18.3828 11.625Z"/>
</svg>
