<svg width="13" height="12" viewBox="0 0 13 12" xmlns="http://www.w3.org/2000/svg">
    <path fill="currentColor" d="M6 0.75C9.32812 0.75 12 2.95312 12 5.625C12 6.75 11.5547 7.78125 10.7812 8.60156C11.1094 9.51562 11.8359 10.3125 11.8594 10.3125C12.0234 10.4766 12.0469 10.7109 11.9766 10.9219C11.8828 11.1328 11.6719 11.25 11.4375 11.25C10.0078 11.25 8.85938 10.6641 8.17969 10.1719C7.5 10.3828 6.77344 10.5 6 10.5C2.69531 10.5 0 8.32031 0 5.625C0 2.95312 2.69531 0.75 6 0.75ZM6 9.375C6.63281 9.375 7.26562 9.28125 7.85156 9.09375L8.39062 8.92969L8.83594 9.25781C9.16406 9.49219 9.63281 9.75 10.1953 9.9375C10.0078 9.65625 9.84375 9.32812 9.72656 9L9.46875 8.34375L9.96094 7.82812C10.3828 7.38281 10.875 6.63281 10.875 5.625C10.875 3.5625 8.69531 1.875 6 1.875C3.32812 1.875 1.125 3.5625 1.125 5.625C1.125 7.71094 3.32812 9.375 6 9.375Z"/>
</svg>
