<svg width="37" height="37" viewBox="0 0 37 37" xmlns="http://www.w3.org/2000/svg">
    <path fill="currentColor" d="M25.75 23C24.4844 23 23.5 24.0547 23.5 25.25C23.5 26.5156 24.4844 27.5 25.75 27.5C26.9453 27.5 28 26.5156 28 25.25C28 24.0547 26.9453 23 25.75 23ZM14.5 14C14.5 12.8047 13.4453 11.75 12.25 11.75C10.9844 11.75 10 12.8047 10 14C10 15.2656 10.9844 16.25 12.25 16.25C13.4453 16.25 14.5 15.2656 14.5 14ZM14.5 23C13.2344 23 12.25 24.0547 12.25 25.25C12.25 26.5156 13.2344 27.5 14.5 27.5C15.6953 27.5 16.75 26.5156 16.75 25.25C16.75 24.0547 15.6953 23 14.5 23ZM21.25 16.25C19.9844 16.25 19 17.3047 19 18.5C19 19.7656 19.9844 20.75 21.25 20.75C22.4453 20.75 23.5 19.7656 23.5 18.5C23.5 17.3047 22.4453 16.25 21.25 16.25ZM36.8594 18.5C31.9375 18.4297 28 14.4922 28 9.5C23.0078 9.5 19.0703 5.5625 19 0.640625C18.5078 0.570313 18.0156 0.5 17.5938 0.5C16.1172 0.5 14.7109 0.851563 13.375 1.55469L8.52344 4.01562C7.04688 4.78906 5.21875 6.61719 4.44531 8.09375L1.98437 12.9453C1.42187 14 0.929687 15.8984 0.929687 17.1641C0.929687 17.5859 1 18.2188 1.07031 18.6406L1.91406 23.9844C2.19531 25.6016 3.39062 27.9219 4.51562 29.1172L8.38281 32.9844C9.57812 34.1094 11.8281 35.3047 13.5156 35.5859L18.9297 36.4297C19.3516 36.5 19.8437 36.5703 20.3359 36.5703C21.8125 36.5703 23.2187 36.2188 24.5547 35.5156L29.4062 33.0547C30.8828 32.2812 32.7109 30.4531 33.4844 28.9766L35.9453 24.125C36.8594 22.4375 37.1406 20.4688 36.8594 18.5ZM32.9219 22.5781L30.4609 27.4297C29.8984 28.5547 28.9844 29.4688 27.8594 30.0312L23.0078 32.4922C22.2344 32.9141 21.25 33.125 20.3359 33.125C20.0547 33.125 19.7031 33.125 19.4219 33.0547L14.0078 32.2109C12.8125 32.0703 11.6875 31.4375 10.7734 30.5938L6.90625 26.7266C6.0625 25.8125 5.42969 24.6875 5.28906 23.4219L4.44531 18.0781C4.23437 16.8125 4.44531 15.6172 5.00781 14.4922L7.46875 9.64062C8.03125 8.51562 8.94531 7.60156 10.0703 7.03906L14.9219 4.57813C15.2734 4.36719 15.6953 4.22656 16.1172 4.08594C17.3828 8.23438 20.7578 11.4688 24.9766 12.5234C26.0312 16.7422 29.2656 20.1172 33.4141 21.3828C33.3438 21.7344 33.1328 22.2969 32.9219 22.5781Z"/>
</svg>
