<svg width="33" height="20" viewBox="0 0 33 20" xmlns="http://www.w3.org/2000/svg">
    <path fill="currentColor" d="M24.0664 6.49219L23.5078 5.93359C23.2031 5.62891 22.6445 5.62891 22.3398 5.93359L19.75 8.57422L17.1094 5.93359C16.8047 5.62891 16.2461 5.62891 15.9414 5.93359L15.3828 6.49219C15.0781 6.79688 15.0781 7.35547 15.3828 7.66016L18.0234 10.25L15.3828 12.8906C15.0781 13.1953 15.0781 13.7539 15.3828 14.0586L15.9414 14.6172C16.2461 14.9219 16.8047 14.9219 17.1094 14.6172L19.75 11.9766L22.3398 14.6172C22.6445 14.9219 23.2031 14.9219 23.5078 14.6172L24.0664 14.0586C24.3711 13.7539 24.3711 13.1953 24.0664 12.8906L21.4258 10.25L24.0664 7.66016C24.3711 7.35547 24.3711 6.79688 24.0664 6.49219ZM29.5 0.5H10.6602C9.79688 0.5 8.98438 0.855469 8.375 1.46484L0.707031 9.13281C0.046875 9.74219 0.046875 10.8086 0.707031 11.418L8.375 19.0859C8.98438 19.6953 9.79688 20 10.6602 20H29.5C31.2773 20 32.75 18.5781 32.75 16.75V3.75C32.75 1.97266 31.2773 0.5 29.5 0.5ZM30.3125 16.75C30.3125 17.207 29.9062 17.5625 29.5 17.5625H10.6602C10.4062 17.5625 10.2031 17.5117 10.0508 17.3594L2.99219 10.25L10.0508 3.19141C10.2031 3.03906 10.4062 2.9375 10.6602 2.9375H29.5C29.9062 2.9375 30.3125 3.34375 30.3125 3.75V16.75Z"/>
</svg>
