<svg width="35" height="33" viewBox="0 0 35 33" xmlns="http://www.w3.org/2000/svg">
    <path fill="currentColor" d="M1.83008 9.86901L21.6936 9.96249C22.2222 9.96498 22.6736 10.3447 22.6711 10.8734L22.663 12.6105C22.6605 13.1392 22.2052 13.5903 21.6765 13.5878L1.81302 13.4943C1.28433 13.4918 0.908833 13.0369 0.911321 12.5082L0.919497 10.7711C0.921985 10.2424 1.3014 9.86652 1.83008 9.86901ZM1.73908 29.2038L21.6026 29.2973C22.1312 29.2998 22.5826 29.6795 22.5801 30.2082L22.572 31.9453C22.5695 32.474 22.1142 32.925 21.5855 32.9226L1.72202 32.8291C1.19333 32.8266 0.817835 32.3716 0.820323 31.843L0.828499 30.1058C0.830987 29.5772 1.2104 29.2013 1.73908 29.2038ZM33.4887 23.311L2.06963 23.1631C1.38989 23.1599 0.864045 22.5532 0.866888 21.949L0.872576 20.7406C0.875775 20.0608 1.40695 19.5346 2.08669 19.5378L33.5057 19.6857C34.1099 19.6885 34.7116 20.2201 34.7084 20.8998L34.7028 22.1082C34.6999 22.7124 34.0929 23.3138 33.4887 23.311ZM33.5796 3.97618L2.16062 3.82831C1.48089 3.82511 0.955043 3.21841 0.957887 2.6142L0.963574 1.40577C0.966774 0.726034 1.49795 0.199837 2.17769 0.203036L33.5967 0.350909C34.2009 0.353753 34.8026 0.885282 34.7994 1.56502L34.7938 2.77344C34.7909 3.37766 34.1839 3.97902 33.5796 3.97618Z"/>
</svg>
