<svg width="4" height="12" viewBox="0 0 4 12" xmlns="http://www.w3.org/2000/svg">
    <path fill="currentColor" d="M2 4.22705C1.26172 4.22705 0.6875 4.82861 0.6875 5.53955C0.6875 6.27783 1.26172 6.85205 2 6.85205C2.71094 6.85205 3.3125 6.27783 3.3125 5.53955C3.3125 4.82861 2.71094 4.22705 2 4.22705ZM0.6875 1.3833C0.6875 2.12158 1.26172 2.6958 2 2.6958C2.71094 2.6958 3.3125 2.12158 3.3125 1.3833C3.3125 0.672363 2.71094 0.0708008 2 0.0708008C1.26172 0.0708008 0.6875 0.672363 0.6875 1.3833ZM0.6875 9.6958C0.6875 10.4341 1.26172 11.0083 2 11.0083C2.71094 11.0083 3.3125 10.4341 3.3125 9.6958C3.3125 8.98486 2.71094 8.3833 2 8.3833C1.26172 8.3833 0.6875 8.98486 0.6875 9.6958Z"/>
</svg>
