<svg width="16" height="15" viewBox="0 0 16 15" xmlns="http://www.w3.org/2000/svg">
    <path fill="currentColor" d="M7.76923 0.460938C3.75556 0.460938 0.503605 3.71289 0.503605 7.72656C0.503605 11.7402 3.75556 14.9922 7.76923 14.9922C11.7829 14.9922 15.0349 11.7402 15.0349 7.72656C15.0349 3.71289 11.7829 0.460938 7.76923 0.460938ZM7.76923 13.5859C4.51728 13.5859 1.90985 10.9785 1.90985 7.72656C1.90985 4.50391 4.51728 1.86719 7.76923 1.86719C10.9919 1.86719 13.6286 4.50391 13.6286 7.72656C13.6286 10.9785 10.9919 13.5859 7.76923 13.5859ZM5.42548 7.25781C5.92353 7.25781 6.36298 6.84766 6.36298 6.32031C6.36298 5.82227 5.92353 5.38281 5.42548 5.38281C4.89814 5.38281 4.48798 5.82227 4.48798 6.32031C4.48798 6.84766 4.89814 7.25781 5.42548 7.25781ZM10.113 7.25781C10.611 7.25781 11.0505 6.84766 11.0505 6.32031C11.0505 5.82227 10.611 5.38281 10.113 5.38281C9.58564 5.38281 9.17548 5.82227 9.17548 6.32031C9.17548 6.84766 9.58564 7.25781 10.113 7.25781ZM10.2302 9.39648C9.61493 10.1289 8.70673 10.5391 7.76923 10.5391C6.80243 10.5391 5.89423 10.1289 5.30829 9.39648C5.04462 9.10352 4.60517 9.07422 4.3122 9.30859C4.01923 9.54297 3.96064 10.0117 4.22431 10.3047C5.10321 11.3594 6.39228 11.9453 7.76923 11.9453C9.11689 11.9453 10.4059 11.3594 11.2849 10.3047C11.5485 10.0117 11.5192 9.54297 11.197 9.30859C10.904 9.07422 10.4645 9.10352 10.2302 9.39648Z"/>
</svg>
