<svg width="16" height="13" viewBox="0 0 16 13" xmlns="http://www.w3.org/2000/svg">
    <path fill="currentColor" d="M14.5 0.830078H1.5C0.65625 0.830078 0 1.51758 0 2.33008V11.3301C0 12.1738 0.65625 12.8301 1.5 12.8301H14.5C15.3125 12.8301 16 12.1738 16 11.3301V2.33008C16 1.51758 15.3125 0.830078 14.5 0.830078ZM14.5 2.33008V3.61133C13.7812 4.20508 12.6562 5.08008 10.2812 6.95508C9.75 7.36133 8.71875 8.36133 8 8.33008C7.25 8.36133 6.21875 7.36133 5.6875 6.95508C3.3125 5.08008 2.1875 4.20508 1.5 3.61133V2.33008H14.5ZM1.5 11.3301V5.54883C2.1875 6.11133 3.21875 6.92383 4.75 8.14258C5.4375 8.67383 6.65625 9.86133 8 9.83008C9.3125 9.86133 10.5 8.67383 11.2188 8.14258C12.75 6.92383 13.7812 6.11133 14.5 5.54883V11.3301H1.5Z"/>
</svg>
