<svg width="17" height="16" viewBox="0 0 17 16" xmlns="http://www.w3.org/2000/svg">
    <path d="M7.32812 6.38086L7.5332 9.66211C7.5332 9.86719 7.67969 9.98438 7.88477 9.98438H9.08594C9.26172 9.98438 9.4375 9.83789 9.4375 9.66211L9.64258 6.38086C9.64258 6.17578 9.49609 6 9.29102 6H7.67969C7.47461 6 7.32812 6.17578 7.32812 6.38086ZM9.73047 11.625C9.73047 10.9512 9.17383 10.3945 8.5 10.3945C7.79688 10.3945 7.26953 10.9512 7.26953 11.625C7.26953 12.3281 7.79688 12.8555 8.5 12.8555C9.17383 12.8555 9.73047 12.3281 9.73047 11.625ZM9.70117 1.07812C9.17383 0.169922 7.79688 0.140625 7.26953 1.07812L0.238281 13.2949C-0.289062 14.2031 0.384766 15.375 1.46875 15.375H15.502C16.5859 15.375 17.2598 14.2324 16.7324 13.2949L9.70117 1.07812ZM1.61523 13.7344L8.32422 2.07422C8.41211 1.95703 8.55859 1.95703 8.64648 2.07422L15.3555 13.7344C15.4434 13.8516 15.3555 13.9688 15.209 13.9688H1.76172C1.61523 13.9688 1.52734 13.8516 1.61523 13.7344Z" fill="currentColor"/>
</svg>
