<svg width="20" height="15" viewBox="0 0 20 15" xmlns="http://www.w3.org/2000/svg">
    <path fill="currentColor" d="M3.75 0C1.67969 0 0 1.67969 0 3.75V11.25C0 13.3203 1.67969 15 3.75 15H7.03125C7.26562 15 7.5 14.8047 7.5 14.5312V13.5938C7.5 13.3594 7.26562 13.125 7.03125 13.125H3.75C2.69531 13.125 1.875 12.3047 1.875 11.25V3.75C1.875 2.73438 2.69531 1.875 3.75 1.875H7.03125C7.26562 1.875 7.5 1.67969 7.5 1.40625V0.46875C7.5 0.234375 7.26562 0 7.03125 0H3.75ZM12.7734 0.78125L11.9922 1.5625C11.7969 1.71875 11.7969 2.03125 11.9922 2.22656L16.4062 6.48438H6.71875C6.44531 6.48438 6.25 6.71875 6.25 6.95312V8.04688C6.25 8.32031 6.44531 8.51562 6.71875 8.51562H16.4062L11.9922 12.8125C11.7969 13.0078 11.7969 13.3203 11.9922 13.4766L12.7734 14.2578C12.9297 14.4531 13.2422 14.4531 13.4375 14.2578L19.8438 7.85156C20.0391 7.65625 20.0391 7.38281 19.8438 7.1875L13.4375 0.78125C13.2422 0.585938 12.9297 0.585938 12.7734 0.78125Z"/>
</svg>
