<svg width="34" height="31" viewBox="0 0 34 31" xmlns="http://www.w3.org/2000/svg">
    <path fill="currentColor" d="M33.4648 14.3438C30.125 8.71875 23.9727 4.96875 17 4.96875C15.125 4.96875 13.3672 5.26172 11.668 5.73047L8.5625 1.10156C8.32812 0.75 7.85938 0.691406 7.56641 0.925781L6.39453 1.6875C6.10156 1.92188 5.98438 2.39062 6.21875 2.68359L8.91406 6.72656C5.45703 8.30859 2.46875 10.9453 0.476562 14.3438C0.242188 14.6953 0.125 15.3398 0.125 15.75C0.125 16.2188 0.242188 16.8633 0.476562 17.2148C2.58594 20.7891 5.92578 23.6602 9.85156 25.1836L3.05469 15.5156C3.58203 14.6367 4.63672 13.3477 5.33984 12.6445L15.0078 26.4727C16.1797 26.5898 17.4102 26.5898 18.4648 26.5312L7.50781 10.8281C8.26953 10.2422 9.67578 9.48047 10.5547 9.07031L10.6133 9.12891L25.4375 30.457C25.6133 30.8086 26.082 30.8672 26.375 30.6328L27.5469 29.8711C27.8398 29.6367 27.957 29.168 27.7227 28.875L25.0273 24.832C28.543 23.1914 31.5312 20.4961 33.4648 17.2148C33.6992 16.8633 33.875 16.2188 33.875 15.75C33.875 15.3398 33.6992 14.6953 33.4648 14.3438ZM23.3867 22.4883L21.8047 20.2617C24.9688 17.8008 25.7891 13.5234 24.0312 10.125C24.0312 11.9414 22.5078 13.4062 20.75 13.4062C18.9336 13.4062 17.4688 11.9414 17.4688 10.125C17.4688 9.24609 17.8203 8.48438 18.3477 7.83984C23.7969 8.30859 28.4258 11.4141 31.0625 15.75C29.3047 18.7383 26.6094 21.082 23.3867 22.4883Z"/>
</svg>
