<svg width="26" height="21" viewBox="0 0 26 21" xmlns="http://www.w3.org/2000/svg">
    <path d="M0.234375 18.8984L23.5938 0.65625C23.7109 0.578125 23.8672 0.5 23.9844 0.5C24.1797 0.5 24.375 0.617188 24.4922 0.734375L24.8828 1.24219C24.9609 1.32031 25.0391 1.51562 25.0391 1.63281C25.0391 1.78906 24.9219 2.02344 24.7656 2.10156L1.40625 20.3828C1.32812 20.4609 1.17188 20.5 1.01562 20.5C0.859375 20.5 0.664062 20.4219 0.546875 20.2656L0.15625 19.7969C0.078125 19.7188 0 19.5234 0 19.4062C0 19.25 0.117188 19.0156 0.234375 18.8984ZM13.4375 6.24219L8.16406 10.3438C8.24219 8 10.1562 6.125 12.5 6.125C12.7734 6.16406 13.1641 6.20312 13.4375 6.24219ZM11.6016 14.7969L16.875 10.6953C16.7969 13.0391 14.8828 14.875 12.5 14.875C12.2656 14.875 11.875 14.8359 11.6016 14.7969ZM12.5 4.875C8.67188 4.875 5.11719 7.02344 3.24219 10.5C3.63281 11.2422 4.375 12.2969 4.96094 12.8828L3.47656 14.0156C2.77344 13.2734 1.875 11.9844 1.40625 11.0859C1.32812 10.9297 1.25 10.6953 1.25 10.5C1.25 10.3438 1.32812 10.1094 1.40625 9.95312C3.51562 5.8125 7.73438 3 12.5 3C13.9453 3 15.3125 3.27344 16.6016 3.74219L14.8047 5.1875C14.0625 4.99219 13.2812 4.875 12.5 4.875ZM12.5 16.125C16.3672 16.125 19.9219 13.9766 21.7969 10.5C21.4062 9.79688 20.6641 8.74219 20.0781 8.15625L21.5625 7.02344C22.2656 7.76562 23.1641 9.05469 23.6328 9.95312C23.7109 10.1094 23.75 10.3438 23.75 10.5391C23.75 10.6953 23.7109 10.9297 23.6328 11.0859C21.5234 15.2266 17.3047 18 12.5 18C11.0938 18 9.72656 17.7266 8.4375 17.2969L10.2344 15.8516C10.9766 16.0469 11.7578 16.125 12.5 16.125Z" fill="currentColor"/>
</svg>
