<svg width="13" height="9" viewBox="0 0 13 9" xmlns="http://www.w3.org/2000/svg">
    <path d="M6.5 2.46875C6.30664 2.49023 6.00586 2.5332 5.8125 2.57617C5.89844 2.72656 5.96289 3.00586 5.98438 3.15625C5.98438 3.82227 5.42578 4.35938 4.78125 4.35938C4.60938 4.35938 4.33008 4.29492 4.20117 4.20898C4.13672 4.40234 4.09375 4.68164 4.09375 4.875C4.09375 6.20703 5.16797 7.28125 6.5 7.28125C7.83203 7.28125 8.90625 6.20703 8.90625 4.875C8.90625 3.56445 7.83203 2.46875 6.5 2.46875ZM12.6016 4.57422C11.4414 2.29688 9.12109 0.75 6.5 0.75C3.85742 0.75 1.53711 2.29688 0.376953 4.57422C0.333984 4.66016 0.3125 4.78906 0.3125 4.89648C0.3125 4.98242 0.333984 5.11133 0.376953 5.19727C1.53711 7.47461 3.85742 9 6.5 9C9.12109 9 11.4414 7.47461 12.6016 5.19727C12.6445 5.11133 12.666 4.98242 12.666 4.875C12.666 4.78906 12.6445 4.66016 12.6016 4.57422ZM6.5 7.96875C4.37305 7.96875 2.41797 6.78711 1.38672 4.875C2.41797 2.96289 4.37305 1.78125 6.5 1.78125C8.60547 1.78125 10.5605 2.96289 11.5918 4.875C10.5605 6.78711 8.60547 7.96875 6.5 7.96875Z" fill="currentColor"/>
</svg>
