<svg width="16" height="19" viewBox="0 0 16 19" xmlns="http://www.w3.org/2000/svg">
    <path fill="currentColor" d="M11.4805 2.07812C10.7422 2.74609 10.0742 3.44922 9.51172 4.1875C8.5625 2.85156 7.36719 1.51562 6.03125 0.25C2.55078 3.48438 0.125 7.63281 0.125 10.1641C0.125 14.6289 3.64062 18.25 8 18.25C12.3242 18.25 15.875 14.6289 15.875 10.1641C15.875 8.30078 14.0469 4.43359 11.4805 2.07812ZM8 16.5625C4.55469 16.5625 1.8125 13.7148 1.8125 10.1641C1.8125 8.58203 3.35938 5.48828 6.03125 2.64062C6.80469 3.44922 7.50781 4.32812 8.14062 5.17188L9.44141 6.92969L10.8125 5.24219C11.0234 4.99609 11.2344 4.75 11.4453 4.50391C13.0625 6.50781 14.1875 9.07422 14.1875 10.1641C14.1875 13.7148 11.4102 16.5625 8 16.5625ZM11.1289 8.82812L9.33594 10.8672C9.33594 10.8672 6.48828 7.24609 6.27734 7C4.80078 8.79297 4.0625 9.84766 4.0625 11.043C4.0625 13.4336 5.85547 14.875 8.07031 14.875C8.94922 14.875 9.79297 14.6289 10.4609 14.1367C11.9727 13.082 12.3242 11.043 11.4805 9.42578C11.375 9.25 11.2695 9.03906 11.1289 8.82812Z"/>
</svg>
