<svg width="15" height="16" viewBox="0 0 15 16" xmlns="http://www.w3.org/2000/svg">
    <path fill="currentColor" d="M9.84375 3.21875C8.4082 3.21875 7.08984 2.28125 5.09766 2.28125C4.16016 2.28125 3.36914 2.48633 2.72461 2.75C2.75391 2.63281 2.8125 2.42773 2.8125 2.28125C2.8125 2.25195 2.7832 2.16406 2.7832 2.13477C2.72461 1.46094 2.16797 0.933594 1.49414 0.904297C0.673828 0.845703 0 1.49023 0 2.28125C0 2.80859 0.263672 3.27734 0.703125 3.51172V15.4062C0.703125 15.6699 0.908203 15.875 1.17188 15.875H1.64062C1.875 15.875 2.10938 15.6699 2.10938 15.4062V12.9746C3.19336 12.4766 4.18945 12.125 5.83008 12.125C7.26562 12.125 8.58398 13.0625 10.5762 13.0625C12.3047 13.0625 13.5645 12.418 14.3555 11.9199C14.7363 11.6562 15 11.2168 15 10.7188V3.6875C15 2.69141 13.9453 2.01758 13.0371 2.39844C11.9824 2.86719 10.8691 3.21875 9.84375 3.21875ZM13.5938 10.7188C12.9492 11.1875 11.8066 11.6562 10.5762 11.6562C8.81836 11.6562 7.58789 10.7188 5.83008 10.7188C4.57031 10.7188 3.01758 11.0117 2.10938 11.4219V4.625C2.72461 4.18555 3.86719 3.6875 5.09766 3.6875C6.85547 3.6875 8.08594 4.625 9.84375 4.625C11.1035 4.625 12.6562 4.12695 13.5938 3.6875V10.7188Z"/>
</svg>
