<svg width="20" height="14" viewBox="0 0 20 14" xmlns="http://www.w3.org/2000/svg">
    <path fill="currentColor" d="M18.3717 6.172H16.8112V4.57825C16.8112 3.71497 16.0807 2.9845 15.2174 2.9845H9.90491L7.77991 0.859497H2.46741C1.57092 0.859497 0.873657 1.58997 0.873657 2.45325V12.0157C0.873657 12.9122 1.57092 13.6095 2.46741 13.6095H15.7487C16.2799 13.6095 16.778 13.3439 17.0768 12.879L19.733 8.62903C20.3971 7.56653 19.6334 6.172 18.3717 6.172ZM2.46741 2.65247C2.46741 2.55286 2.53381 2.45325 2.66663 2.45325H7.11584L9.24084 4.57825H15.0182C15.1178 4.57825 15.2174 4.67786 15.2174 4.77747V6.172H5.92053C5.35608 6.172 4.82483 6.47083 4.526 6.96887L2.46741 10.422V2.65247ZM15.7487 12.0157H3.26428L5.82092 7.76575H18.4049L15.7487 12.0157Z"/>
</svg>
