<svg width="46" height="33" viewBox="0 0 46 33" xmlns="http://www.w3.org/2000/svg">
    <path fill="currentColor" d="M29.125 14.25C27.8594 14.25 26.875 15.3047 26.875 16.5C26.875 17.7656 27.8594 18.75 29.125 18.75C30.3203 18.75 31.375 17.7656 31.375 16.5C31.375 15.3047 30.3203 14.25 29.125 14.25ZM45.8594 22.3359L43.9609 9.60938C43.3984 5.95313 40.7266 3.07031 37.2109 2.29688C33.4844 1.45313 27.2969 0.75 23.5 0.75C19.6328 0.75 13.4453 1.45313 9.71875 2.29688C6.20312 3.07031 3.53125 5.95312 2.96875 9.60938L1.07031 22.3359C0.296875 27.5391 4.23437 32.25 9.50781 32.25C12.4609 32.25 15.8359 30.1406 17.1016 27.5391L18.0859 25.5H28.8438L29.8281 27.5391C31.0937 30.1406 34.4688 32.25 37.4219 32.25C42.6953 32.25 46.6328 27.5391 45.8594 22.3359ZM41.2891 27.1172C40.4453 28.1016 38.7578 28.9453 37.4219 28.9453C37.4219 28.9453 37.4219 28.9453 37.4219 28.875C35.4531 28.875 33.6953 27.8203 32.8516 25.9922L31.8672 24.0234L30.9531 22.125H15.9766L15.0625 24.0234L14.0781 25.9922C13.2344 27.8203 11.4766 28.875 9.50781 28.875H9.4375C8.17187 28.875 6.48437 28.1016 5.64062 27.1172C4.9375 26.2734 4.375 24.7266 4.375 23.6719C4.375 23.3906 4.375 23.0391 4.375 22.8281L6.34375 10.1016C6.69531 7.85156 8.3125 6.09375 10.4219 5.60156C14.0078 4.82813 19.8438 4.125 23.5 4.125C27.0859 4.125 32.9219 4.82813 36.5078 5.60156C38.6172 6.09375 40.2344 7.85156 40.5859 10.1016L42.5547 22.8281C42.5547 23.0391 42.5547 23.3906 42.5547 23.6719C42.5547 24.7266 41.9922 26.2734 41.2891 27.1172ZM35.875 9.75C34.6094 9.75 33.625 10.8047 33.625 12C33.625 13.2656 34.6094 14.25 35.875 14.25C37.0703 14.25 38.125 13.2656 38.125 12C38.125 10.8047 37.0703 9.75 35.875 9.75ZM19.5625 12.5625L16.1875 12.5625V9.1875C16.1875 8.90625 15.9062 8.625 15.625 8.625H13.375C13.0234 8.625 12.8125 8.90625 12.8125 9.1875V12.5625H9.4375C9.08594 12.5625 8.875 12.8438 8.875 13.125V15.375C8.875 15.7266 9.08594 15.9375 9.4375 15.9375H12.8125V19.3125C12.8125 19.6641 13.0234 19.875 13.375 19.875H15.625C15.9062 19.875 16.1875 19.6641 16.1875 19.3125V15.9375H19.5625C19.8438 15.9375 20.125 15.7266 20.125 15.375V13.125C20.125 12.8438 19.8438 12.5625 19.5625 12.5625Z"/>
</svg>
