<svg width="17" height="18" viewBox="0 0 17 18" xmlns="http://www.w3.org/2000/svg">
    <path fill="currentColor" d="M8.63867 0.958008C4.08984 0.958008 0.404297 4.64355 0.404297 9.19238C0.404297 13.7412 4.08984 17.4268 8.63867 17.4268C13.1875 17.4268 16.873 13.7412 16.873 9.19238C16.873 4.64355 13.1875 0.958008 8.63867 0.958008ZM14.582 6.27051H12.3574C12.125 5.0752 11.7598 4.0127 11.2949 3.14941C12.7227 3.78027 13.8848 4.87598 14.582 6.27051ZM8.63867 2.55176C9.23633 2.55176 10.2324 3.94629 10.7305 6.27051H6.51367C7.01172 3.94629 8.00781 2.55176 8.63867 2.55176ZM1.99805 9.19238C1.99805 8.76074 2.03125 8.2959 2.13086 7.86426H4.6875C4.6543 8.3291 4.6543 8.76074 4.6543 9.19238C4.6543 9.65723 4.6543 10.0889 4.6875 10.5205H2.13086C2.03125 10.1221 1.99805 9.65723 1.99805 9.19238ZM2.66211 12.1143H4.88672C5.11914 13.3428 5.48438 14.4053 5.94922 15.2686C4.52148 14.6377 3.35938 13.5088 2.66211 12.1143ZM4.88672 6.27051H2.66211C3.35938 4.87598 4.52148 3.78027 5.94922 3.14941C5.48438 4.0127 5.11914 5.0752 4.88672 6.27051ZM8.63867 15.833C8.00781 15.833 7.01172 14.4717 6.51367 12.1143H10.7305C10.2324 14.4717 9.23633 15.833 8.63867 15.833ZM10.9629 10.5205H6.28125C6.24805 10.1221 6.24805 9.65723 6.24805 9.19238C6.24805 8.72754 6.24805 8.2959 6.28125 7.86426H10.9629C10.9961 8.2959 11.0293 8.72754 11.0293 9.19238C11.0293 9.65723 10.9961 10.1221 10.9629 10.5205ZM11.2949 15.2686C11.7598 14.4053 12.125 13.3428 12.3574 12.1143H14.582C13.8848 13.5088 12.7227 14.6377 11.2949 15.2686ZM12.5566 10.5205C12.5898 10.0889 12.623 9.65723 12.623 9.19238C12.623 8.76074 12.5898 8.3291 12.5566 7.86426H15.1465C15.2129 8.2959 15.2793 8.76074 15.2793 9.19238C15.2793 9.65723 15.2129 10.1221 15.1465 10.5205H12.5566Z"/>
</svg>
