<svg width="27" height="10" viewBox="0 0 27 10" xmlns="http://www.w3.org/2000/svg">
    <path fill="currentColor" d="M25.3828 6.75879H1.00781C0.480469 6.75879 0.0703125 7.22754 0.0703125 7.69629V8.63379C0.0703125 9.16113 0.480469 9.57129 1.00781 9.57129H25.3828C25.8516 9.57129 26.3203 9.16113 26.3203 8.63379V7.69629C26.3203 7.22754 25.8516 6.75879 25.3828 6.75879ZM25.3828 0.196289H1.00781C0.480469 0.196289 0.0703125 0.665039 0.0703125 1.13379V2.07129C0.0703125 2.59863 0.480469 3.00879 1.00781 3.00879H25.3828C25.8516 3.00879 26.3203 2.59863 26.3203 2.07129V1.13379C26.3203 0.665039 25.8516 0.196289 25.3828 0.196289Z"/>
</svg>
