<svg width="17" height="20" viewBox="0 0 17 20" xmlns="http://www.w3.org/2000/svg">
    <path fill="currentColor" d="M14.2031 5.22266V4.83594C14.2031 3.32422 12.7969 2.16406 11.2852 2.55078C10.3711 0.792969 7.98047 0.863281 7.13672 2.58594C5.69531 2.19922 4.25391 3.28906 4.25391 4.83594V9.30078C3.55078 9.01953 2.70703 9.125 2.07422 9.61719C1.01953 10.3555 0.808594 11.832 1.54688 12.8867L5.76562 18.793C5.94141 19.0391 6.36328 19.2852 6.67969 19.2852H14.5195C15.0469 19.2852 15.5039 18.8984 15.6094 18.4062L16.6641 13.8008C16.7695 13.3438 16.8398 12.6406 16.875 12.1836V7.54297C16.875 6.13672 15.6094 5.04688 14.2031 5.22266ZM15.1523 12.1836C15.1523 12.6055 15.1172 13.0273 15.0469 13.4141L14.0625 17.5625H6.96094L2.91797 11.9023C2.42578 11.1992 3.44531 10.3906 3.9375 11.0938L4.92188 12.4297C5.23828 12.8867 5.94141 12.6758 5.94141 12.1133V4.83594C5.94141 3.95703 7.20703 3.99219 7.20703 4.87109V10.25C7.20703 10.5664 7.45312 10.8125 7.76953 10.8125H8.01562C8.33203 10.8125 8.57812 10.5664 8.57812 10.25V3.60547C8.57812 2.72656 9.87891 2.76172 9.87891 3.64062V10.25C9.87891 10.5664 10.125 10.8125 10.4414 10.8125H10.6523C10.9688 10.8125 11.2148 10.5664 11.2148 10.25V4.83594C11.2148 3.92188 12.5156 3.95703 12.5156 4.83594V10.25C12.5156 10.5664 12.7617 10.8125 13.0781 10.8125H13.3242C13.6406 10.8125 13.8867 10.5664 13.8867 10.25V7.57812C13.8867 6.66406 15.1523 6.69922 15.1523 7.54297V12.1836Z"/>
</svg>
