<svg width="18" height="19" viewBox="0 0 18 19" xmlns="http://www.w3.org/2000/svg">
    <path fill="currentColor" d="M17.5586 6.96094L17.7148 6.02344C17.793 5.71094 17.5586 5.4375 17.2461 5.4375H13.7695L14.5117 1.33594C14.5898 1.02344 14.3555 0.75 14.082 0.75H13.1055C12.9102 0.75 12.6758 0.945312 12.6367 1.14062L11.8945 5.4375H7.51953L8.26172 1.33594C8.33984 1.02344 8.10547 0.75 7.83203 0.75H6.85547C6.66016 0.75 6.42578 0.945312 6.38672 1.14062L5.64453 5.4375H1.97266C1.77734 5.4375 1.58203 5.63281 1.54297 5.82812L1.34766 6.76562C1.30859 7.07812 1.54297 7.3125 1.81641 7.3125H5.29297L4.51172 11.6875H0.878906C0.644531 11.6875 0.449219 11.8828 0.410156 12.0781L0.253906 13.0156C0.175781 13.3281 0.410156 13.5625 0.722656 13.5625H4.19922L3.45703 17.7031C3.37891 18.0156 3.61328 18.25 3.88672 18.25H4.86328C5.05859 18.25 5.29297 18.0938 5.33203 17.8984L6.07422 13.5625H10.4492L9.70703 17.7031C9.62891 18.0156 9.86328 18.25 10.1367 18.25H11.1133C11.3086 18.25 11.543 18.0938 11.582 17.8984L12.3242 13.5625H15.9961C16.1914 13.5625 16.3867 13.4062 16.4258 13.2109L16.6211 12.2734C16.6602 11.9609 16.4258 11.6875 16.1523 11.6875H12.6758L13.457 7.3125H17.0898C17.3242 7.3125 17.5195 7.15625 17.5586 6.96094ZM10.7617 11.6875H6.42578L7.20703 7.3125H11.543L10.7617 11.6875Z"/>
</svg>
