<svg width="16" height="14" viewBox="0 0 16 14" xmlns="http://www.w3.org/2000/svg">
    <path fill="currentColor" d="M14.418 1.7793C12.7188 0.34375 10.1113 0.548828 8.5 2.21875C6.85938 0.548828 4.25195 0.34375 2.55273 1.7793C0.355469 3.625 0.677734 6.64258 2.25977 8.25391L7.38672 13.498C7.67969 13.791 8.06055 13.9668 8.5 13.9668C8.91016 13.9668 9.29102 13.791 9.58398 13.498L14.7402 8.25391C16.293 6.64258 16.6152 3.625 14.418 1.7793ZM13.7148 7.25781L8.58789 12.502C8.5293 12.5605 8.4707 12.5605 8.38281 12.502L3.25586 7.25781C2.17188 6.17383 1.9668 4.12305 3.46094 2.86328C4.60352 1.89648 6.36133 2.04297 7.47461 3.15625L8.5 4.21094L9.52539 3.15625C10.6094 2.04297 12.3672 1.89648 13.5098 2.83398C15.0039 4.12305 14.7988 6.17383 13.7148 7.25781Z"/>
</svg>
