<svg width="18" height="14" viewBox="0 0 18 14" xmlns="http://www.w3.org/2000/svg">
    <path fill="currentColor" d="M16.3125 0.5H1.6875C0.738281 0.5 0 1.27344 0 2.1875V12.3125C0 13.2617 0.738281 14 1.6875 14H16.3125C17.2266 14 18 13.2617 18 12.3125V2.1875C18 1.27344 17.2266 0.5 16.3125 0.5ZM16.1016 12.3125H1.89844C1.75781 12.3125 1.6875 12.2422 1.6875 12.1016V2.39844C1.6875 2.29297 1.75781 2.1875 1.89844 2.1875H16.1016C16.207 2.1875 16.3125 2.29297 16.3125 2.39844V12.1016C16.3125 12.2422 16.207 12.3125 16.1016 12.3125ZM4.5 3.59375C3.69141 3.59375 3.09375 4.22656 3.09375 5C3.09375 5.80859 3.69141 6.40625 4.5 6.40625C5.27344 6.40625 5.90625 5.80859 5.90625 5C5.90625 4.22656 5.27344 3.59375 4.5 3.59375ZM3.375 10.625H14.625V7.8125L11.5312 4.75391C11.3555 4.57812 11.1094 4.57812 10.9336 4.75391L6.75 8.9375L5.34375 7.56641C5.16797 7.39062 4.92188 7.39062 4.74609 7.56641L3.375 8.9375V10.625Z"/>
</svg>
