<svg width="10" height="14" viewBox="0 0 10 14" xmlns="http://www.w3.org/2000/svg">
    <path fill="currentColor" d="M9.45673 0.632812C9.45673 0.398438 9.22235 0.164062 8.98798 0.164062H3.36298C3.09931 0.164062 2.89423 0.398438 2.89423 0.632812V1.10156C2.89423 1.36523 3.09931 1.57031 3.36298 1.57031H5.0915L2.51337 11.8828H0.55048C0.286808 11.8828 0.0817299 12.1172 0.0817299 12.3516V12.8203C0.0817299 13.084 0.286808 13.2891 0.55048 13.2891H6.17548C6.40985 13.2891 6.64423 13.084 6.64423 12.8203V12.3516C6.64423 12.1172 6.40985 11.8828 6.17548 11.8828H4.44696L7.02509 1.57031H8.98798C9.22235 1.57031 9.45673 1.36523 9.45673 1.10156V0.632812Z"/>
</svg>
