<svg width="18" height="19" viewBox="0 0 18 19" xmlns="http://www.w3.org/2000/svg">
    <path fill="currentColor" d="M11.25 1.9375C14.0273 1.9375 16.3125 4.22266 16.3125 7C16.3125 9.8125 14.0273 12.0625 11.25 12.0625C10.582 12.0625 9.91406 11.957 9.35156 11.7109L7.875 13.1875H6.75V14.875H5.0625V16.5625H1.6875V13.1875L6.39844 8.47656C6.25781 8.08984 6.1875 7.42188 6.1875 7.03516V7C6.1875 4.22266 8.4375 1.9375 11.25 1.9375ZM11.25 0.25C7.48828 0.25 4.5 3.27344 4.5 7C4.5 7.31641 4.5 7.63281 4.53516 7.94922L0.246094 12.2734C0.105469 12.3789 0 12.6602 0 12.8711V17.4062C0 17.8984 0.351562 18.25 0.84375 18.25H5.90625C6.36328 18.25 6.75 17.8984 6.75 17.4062V16.5625H7.59375C8.05078 16.5625 8.4375 16.2109 8.4375 15.7188V15.0156L9.84375 13.6094C10.3008 13.7148 10.7578 13.75 11.25 13.75C14.9766 13.75 18 10.7617 18 7C18 3.27344 14.9766 0.25 11.25 0.25ZM11.25 5.3125C11.25 6.26172 11.9883 7 12.9375 7C13.8516 7 14.625 6.26172 14.625 5.3125C14.625 4.39844 13.8516 3.625 12.9375 3.625C11.9883 3.625 11.25 4.39844 11.25 5.3125Z"/>
</svg>
