<svg width="14" height="21" viewBox="0 0 14 21" xmlns="http://www.w3.org/2000/svg">
    <path fill="currentColor" d="M6.875 3.625C4.80469 3.625 3.125 5.34375 3.125 7.375C3.125 7.72656 3.39844 8 3.75 8C4.0625 8 4.375 7.72656 4.375 7.375C4.375 6.00781 5.46875 4.875 6.875 4.875C7.1875 4.875 7.5 4.60156 7.5 4.25C7.5 3.9375 7.1875 3.625 6.875 3.625ZM3.75 18.4688C3.75 18.5859 3.75 18.7031 3.82812 18.8203L4.80469 20.2266C4.92188 20.4219 5.11719 20.5 5.3125 20.5H8.39844C8.59375 20.5 8.78906 20.4219 8.90625 20.2266L9.88281 18.8203C9.92188 18.7031 9.96094 18.5859 9.96094 18.4688V16.75H3.75V18.4688ZM6.875 0.5C2.85156 0.5 0 3.74219 0 7.375C0 9.13281 0.625 10.6953 1.67969 11.9062C2.34375 12.6484 3.35938 14.2109 3.71094 15.5H5.58594C5.58594 15.3438 5.58594 15.1484 5.50781 14.9531C5.3125 14.25 4.64844 12.4531 3.08594 10.6953C2.30469 9.75781 1.875 8.58594 1.875 7.375C1.83594 4.52344 4.17969 2.375 6.875 2.375C9.60938 2.375 11.875 4.64062 11.875 7.375C11.875 8.58594 11.4062 9.75781 10.625 10.6953C9.10156 12.4141 8.39844 14.25 8.20312 14.9531C8.16406 15.1094 8.125 15.3438 8.125 15.5H10C10.3516 14.2109 11.3672 12.6484 12.0312 11.9062C13.0859 10.6953 13.75 9.13281 13.75 7.375C13.75 3.58594 10.6641 0.5 6.875 0.5Z"/>
</svg>
