<svg width="21" height="21" viewBox="0 0 21 21" xmlns="http://www.w3.org/2000/svg">
    <path fill="currentColor" d="M19.9492 0.527832L13.582 0.566895C13.2695 0.566895 13.0352 0.80127 13.0352 1.11377V2.40283C13.0352 2.71533 13.2695 2.98877 13.582 2.98877L16.4727 2.87158L16.5508 2.94971L5.65234 13.8481C5.57422 13.9263 5.49609 14.0825 5.49609 14.1606C5.49609 14.2778 5.57422 14.4341 5.65234 14.5122L6.55078 15.4106C6.62891 15.4888 6.78516 15.5669 6.90234 15.5669C6.98047 15.5669 7.13672 15.4888 7.21484 15.4106L18.1133 4.51221L18.1914 4.59033L18.0742 7.48096C18.0742 7.79346 18.3477 8.02783 18.6602 8.02783H19.9492C20.2617 8.02783 20.4961 7.79346 20.4961 7.48096L20.5352 1.11377C20.5352 0.80127 20.2617 0.527832 19.9492 0.527832ZM17.4102 11.7778H16.7852C16.4336 11.7778 16.1602 12.0903 16.1602 12.4028V18.4185C16.1602 18.5747 16.043 18.6528 15.9258 18.6528H2.64453C2.48828 18.6528 2.41016 18.5747 2.41016 18.4185V5.13721C2.41016 5.02002 2.48828 4.90283 2.64453 4.90283H8.66016C8.97266 4.90283 9.28516 4.62939 9.28516 4.27783V3.65283C9.28516 3.34033 8.97266 3.02783 8.66016 3.02783H2.41016C1.35547 3.02783 0.535156 3.88721 0.535156 4.90283V18.6528C0.535156 19.7075 1.35547 20.5278 2.41016 20.5278H16.1602C17.1758 20.5278 18.0352 19.7075 18.0352 18.6528V12.4028C18.0352 12.0903 17.7227 11.7778 17.4102 11.7778Z"/>
</svg>
