<svg width="16" height="16" viewBox="0 0 16 16" xmlns="http://www.w3.org/2000/svg">
    <path fill="currentColor" d="M9.46845 6.02734C9.14618 5.70508 8.79462 5.4707 8.41376 5.26562C8.26728 5.20703 8.12079 5.23633 8.0036 5.35352L7.88642 5.4707C7.62275 5.70508 7.47626 6.02734 7.44696 6.34961C7.41767 6.49609 7.50556 6.64258 7.62275 6.73047C7.82782 6.81836 8.15009 7.02344 8.29657 7.19922C9.26337 8.16602 9.26337 9.71875 8.29657 10.6855L6.09931 12.8828C5.13251 13.8496 3.57978 13.8496 2.61298 12.8828C1.64618 11.916 1.64618 10.3633 2.61298 9.39648L3.96064 8.04883C4.04853 7.96094 4.07782 7.84375 4.04853 7.72656C3.98993 7.43359 3.93134 6.93555 3.90204 6.61328C3.90204 6.32031 3.52118 6.17383 3.3161 6.37891C2.96454 6.73047 2.4079 7.28711 1.4704 8.22461C-0.140926 9.83594 -0.140926 12.4434 1.4704 14.0254C3.05243 15.6367 5.65985 15.6367 7.27118 14.0254C9.67353 11.623 9.55634 11.7402 9.73212 11.5059C11.0505 9.92383 10.9626 7.52148 9.46845 6.02734ZM14.0388 1.45703C12.4567 -0.154297 9.84931 -0.154297 8.23798 1.45703C5.83564 3.85938 5.95282 3.74219 5.77704 3.97656C4.45868 5.55859 4.54657 7.96094 6.04071 9.45508C6.36298 9.77734 6.71454 10.0117 7.0954 10.2168C7.24189 10.2754 7.38837 10.2461 7.50556 10.1289L7.62275 10.0117C7.88642 9.77734 8.0329 9.45508 8.0622 9.13281C8.0915 8.98633 8.0036 8.83984 7.88642 8.75195C7.68134 8.66406 7.35907 8.45898 7.21259 8.2832C6.24579 7.31641 6.24579 5.76367 7.21259 4.79688L9.40985 2.59961C10.3767 1.63281 11.9294 1.63281 12.8962 2.59961C13.863 3.56641 13.863 5.11914 12.8962 6.08594L11.5485 7.43359C11.4606 7.52148 11.4313 7.63867 11.4606 7.75586C11.5192 8.04883 11.5778 8.54688 11.6071 8.86914C11.6071 9.16211 11.988 9.30859 12.1931 9.10352C12.5446 8.75195 13.1013 8.19531 14.0388 7.25781C15.6501 5.64648 15.6501 3.03906 14.0388 1.45703Z"/>
</svg>
