<svg width="16" height="14" viewBox="0 0 16 14" xmlns="http://www.w3.org/2000/svg">
    <path fill="currentColor" d="M7.32812 3.39062H15.2969C15.6777 3.39062 16 3.09766 16 2.6875C16 2.30664 15.6777 1.98438 15.2969 1.98438H7.32812C6.91797 1.98438 6.625 2.30664 6.625 2.6875C6.625 3.09766 6.91797 3.39062 7.32812 3.39062ZM15.2969 11.3594H7.32812C6.91797 11.3594 6.625 11.6816 6.625 12.0625C6.625 12.4727 6.91797 12.7656 7.32812 12.7656H15.2969C15.6777 12.7656 16 12.4727 16 12.0625C16 11.6816 15.6777 11.3594 15.2969 11.3594ZM15.2969 6.67188H7.32812C6.91797 6.67188 6.625 6.99414 6.625 7.375C6.625 7.78516 6.91797 8.07812 7.32812 8.07812H15.2969C15.6777 8.07812 16 7.78516 16 7.375C16 6.99414 15.6777 6.67188 15.2969 6.67188ZM2.17188 6.4375H4.51562C4.89648 6.4375 5.21875 6.14453 5.21875 5.73438C5.21875 5.29492 4.89648 5.03125 4.51562 5.03125H4.04688V1.51562C4.04688 1.28125 3.90039 1.04688 3.66602 0.929688C3.46094 0.783203 3.19727 0.783203 2.96289 0.929688L2.02539 1.45703C1.70312 1.66211 1.58594 2.10156 1.79102 2.42383C1.9668 2.7168 2.31836 2.86328 2.64062 2.74609V5.03125H2.17188C1.76172 5.03125 1.46875 5.35352 1.46875 5.73438C1.46875 6.14453 1.76172 6.4375 2.17188 6.4375ZM4.98438 12.5312H3.51953L4.60352 11.5938C5.48242 10.832 5.57031 9.51367 4.83789 8.63477C4.45703 8.16602 3.92969 7.90234 3.34375 7.87305C2.78711 7.81445 2.20117 7.99023 1.76172 8.37109L1.41016 8.69336C1.11719 8.95703 1.08789 9.39648 1.32227 9.68945C1.58594 9.98242 2.02539 10.0117 2.31836 9.77734L2.69922 9.45508C2.8457 9.30859 3.05078 9.25 3.25586 9.2793C3.46094 9.2793 3.63672 9.36719 3.75391 9.54297C4.01758 9.83594 3.98828 10.2754 3.66602 10.5391L1.23438 12.7363C1 12.9121 0.941406 13.2344 1.0293 13.498C1.14648 13.7617 1.41016 13.9375 1.67383 13.9375H4.98438C5.36523 13.9375 5.6875 13.6445 5.6875 13.2637C5.6875 12.8535 5.36523 12.5312 4.98438 12.5312Z"/>
</svg>
