<svg width="16" height="13" viewBox="0 0 16 13" xmlns="http://www.w3.org/2000/svg">
    <path fill="currentColor" d="M1.67548 10.0078C0.884464 10.0078 0.26923 10.6523 0.26923 11.4141C0.26923 12.2051 0.884464 12.8203 1.67548 12.8203C2.4372 12.8203 3.08173 12.2051 3.08173 11.4141C3.08173 10.6523 2.4372 10.0078 1.67548 10.0078ZM1.67548 5.32031C0.884464 5.32031 0.26923 5.96484 0.26923 6.72656C0.26923 7.51758 0.884464 8.13281 1.67548 8.13281C2.4372 8.13281 3.08173 7.51758 3.08173 6.72656C3.08173 5.96484 2.4372 5.32031 1.67548 5.32031ZM1.67548 0.632812C0.884464 0.632812 0.26923 1.27734 0.26923 2.03906C0.26923 2.83008 0.884464 3.44531 1.67548 3.44531C2.4372 3.44531 3.08173 2.83008 3.08173 2.03906C3.08173 1.27734 2.4372 0.632812 1.67548 0.632812ZM14.8005 1.33594H5.42548C5.16181 1.33594 4.95673 1.57031 4.95673 1.80469V2.27344C4.95673 2.53711 5.16181 2.74219 5.42548 2.74219H14.8005C15.0349 2.74219 15.2692 2.53711 15.2692 2.27344V1.80469C15.2692 1.57031 15.0349 1.33594 14.8005 1.33594ZM14.8005 6.02344H5.42548C5.16181 6.02344 4.95673 6.25781 4.95673 6.49219V6.96094C4.95673 7.22461 5.16181 7.42969 5.42548 7.42969H14.8005C15.0349 7.42969 15.2692 7.22461 15.2692 6.96094V6.49219C15.2692 6.25781 15.0349 6.02344 14.8005 6.02344ZM14.8005 10.7109H5.42548C5.16181 10.7109 4.95673 10.9453 4.95673 11.1797V11.6484C4.95673 11.9121 5.16181 12.1172 5.42548 12.1172H14.8005C15.0349 12.1172 15.2692 11.9121 15.2692 11.6484V11.1797C15.2692 10.9453 15.0349 10.7109 14.8005 10.7109Z"/>
</svg>
