<svg width="19" height="16" viewBox="0 0 19 16" xmlns="http://www.w3.org/2000/svg">
    <path fill="currentColor" d="M0.75 1.8125V14.1875C0.75 15.1367 1.48828 15.875 2.4375 15.875H17.0625C17.9766 15.875 18.75 15.1367 18.75 14.1875V1.8125C18.75 0.898438 17.9766 0.125 17.0625 0.125H2.4375C1.48828 0.125 0.75 0.898438 0.75 1.8125ZM17.3438 9.6875H7.67578V6.3125H17.3438V9.6875ZM17.3438 11.0938V14.0469C17.3438 14.293 17.1328 14.4688 16.9219 14.4688H7.67578V11.0938H17.3438ZM2.15625 6.3125H6.26953V9.6875H2.15625V6.3125ZM7.67578 4.90625V1.53125H16.9219C17.1328 1.53125 17.3438 1.74219 17.3438 1.95312V4.90625H7.67578ZM6.26953 1.53125V4.90625H2.15625V1.95312C2.15625 1.74219 2.33203 1.53125 2.57812 1.53125H6.26953ZM2.15625 11.0938H6.26953V14.4688H2.57812C2.33203 14.4688 2.15625 14.293 2.15625 14.0469V11.0938Z"/>
</svg>
