<svg width="42" height="42" viewBox="0 0 42 42" xmlns="http://www.w3.org/2000/svg">
	<path fill="currentColor" d="M25.3274 6.11635C21.749 5.07591 17.9154 5.35957 14.5291 6.91538C11.1427 8.47119 8.43024 11.195 6.88855 14.5878C5.34686 17.9806 5.07917 21.8153 6.1345 25.3894C7.18984 28.9635 9.49754 32.0377 12.6349 34.049C15.7722 36.0602 19.5292 36.8737 23.2175 36.3406C26.9058 35.8074 30.2786 33.9633 32.718 31.1459C35.1574 28.3286 36.5 24.7267 36.5 21C36.5 19.6193 37.6193 18.5 39 18.5C40.3807 18.5 41.5 19.6193 41.5 21C41.5 25.9288 39.7242 30.6926 36.498 34.4188C33.2717 38.145 28.8109 40.584 23.9328 41.2891C19.0547 41.9943 14.0859 40.9183 9.93647 38.2583C5.78707 35.5983 2.73494 31.5324 1.33918 26.8053C-0.0565901 22.0783 0.297459 17.0066 2.33647 12.5193C4.37548 8.03206 7.96293 4.42963 12.4417 2.37195C16.9204 0.314272 21.9906 -0.0608969 26.7234 1.31517C28.0492 1.70065 28.8115 3.08792 28.426 4.41373C28.0405 5.73954 26.6532 6.50183 25.3274 6.11635Z"/>
</svg>
