<svg width="18" height="21" viewBox="0 0 18 21" xmlns="http://www.w3.org/2000/svg">
    <path d="M9 16.5938C9.58594 16.5938 10.0938 16.125 10.0938 15.5V13C10.0938 12.4141 9.58594 11.9062 9 11.9062C8.375 11.9062 7.90625 12.4141 7.90625 13V15.5C7.90625 16.125 8.375 16.5938 9 16.5938ZM17.75 9.875C17.75 8.85938 16.8906 8 15.875 8H14.625V6.20312C14.625 3.07812 12.125 0.539062 9 0.5C5.875 0.5 3.375 3.03906 3.375 6.125V8H2.125C1.07031 8 0.25 8.85938 0.25 9.875V18.625C0.25 19.6797 1.07031 20.5 2.125 20.5H15.875C16.8906 20.5 17.75 19.6797 17.75 18.625V9.875ZM5.25 8V6.125C5.25 4.09375 6.92969 2.375 9 2.375C11.0312 2.375 12.75 4.09375 12.75 6.125V8H5.25ZM15.875 9.875V18.625H2.125V9.875H15.875Z" fill="currentColor"/>
</svg>
