<svg width="11" height="15" viewBox="0 0 11 15" xmlns="http://www.w3.org/2000/svg">
    <path fill="currentColor" d="M5.5 0.75C8.42578 0.75 10.75 3.12891 10.75 6C10.75 7.96875 10.1211 8.57031 6.62109 14.1484C6.10156 14.9688 4.92578 14.9688 4.40625 14.1484C0.90625 8.57031 0.25 7.96875 0.25 6C0.25 3.10156 2.62891 0.75 5.5 0.75ZM5.5 13.4375C9 7.85938 9.4375 7.50391 9.4375 6C9.4375 3.83984 7.6875 2.0625 5.5 2.0625C3.33984 2.0625 1.5625 3.83984 1.5625 6C1.5625 7.50391 2 7.80469 5.5 13.4375Z"/>
</svg>
