<svg width="14" height="12" viewBox="0 0 14 12" xmlns="http://www.w3.org/2000/svg">
    <path fill="currentColor" d="M13.2109 2.00781C13.3867 2.00781 13.5625 1.86133 13.5625 1.65625V0.71875C13.5625 0.542969 13.3867 0.367188 13.2109 0.367188H0.789062C0.583984 0.367188 0.4375 0.542969 0.4375 0.71875V1.65625C0.4375 1.86133 0.583984 2.00781 0.789062 2.00781H13.2109ZM13.2109 6.69531C13.3867 6.69531 13.5625 6.54883 13.5625 6.34375V5.40625C13.5625 5.23047 13.3867 5.05469 13.2109 5.05469H0.789062C0.583984 5.05469 0.4375 5.23047 0.4375 5.40625V6.34375C0.4375 6.54883 0.583984 6.69531 0.789062 6.69531H13.2109ZM13.2109 11.3828C13.3867 11.3828 13.5625 11.2363 13.5625 11.0312V10.0938C13.5625 9.91797 13.3867 9.74219 13.2109 9.74219H0.789062C0.583984 9.74219 0.4375 9.91797 0.4375 10.0938V11.0312C0.4375 11.2363 0.583984 11.3828 0.789062 11.3828H13.2109Z"/>
</svg>
