<svg width="20" height="20" viewBox="0 0 20 20" xmlns="http://www.w3.org/2000/svg">
    <path fill="currentColor" d="M10.8984 20C13.9453 20 16.7969 18.6328 18.6328 16.3281C19.7656 14.9609 18.5547 12.9688 16.8359 13.2812C13.6328 13.9062 10.6641 11.4453 10.6641 8.20312C10.6641 6.28906 11.6797 4.57031 13.2812 3.67188C14.8047 2.8125 14.4141 0.507812 12.6953 0.195312C12.2266 0.078125 11.4062 0.0390625 10.8984 0C5.35156 0 0.898438 4.49219 0.898438 10C0.898438 15.5469 5.35156 20 10.8984 20ZM10.8984 1.875C11.4062 1.875 11.875 1.95312 12.3828 2.03125C10.2344 3.24219 8.78906 5.54688 8.78906 8.20312C8.78906 12.6172 12.8516 15.9766 17.1875 15.1172C15.7031 16.9531 13.4375 18.125 10.8984 18.125C6.40625 18.125 2.77344 14.4922 2.77344 10C2.77344 5.54688 6.40625 1.875 10.8984 1.875Z"/>
</svg>
