<svg width="31" height="21" viewBox="0 0 31 21" xmlns="http://www.w3.org/2000/svg">
    <path fill="currentColor" d="M29.7307 0.443848L6.52755 0.443848C5.42012 0.443848 4.47091 1.18213 4.10176 2.13135H1.88692C1.14864 2.13135 0.621296 2.71143 0.621296 3.39697L0.621296 17.7407C0.621296 19.3755 1.93966 20.6938 3.57442 20.6938H29.7307C30.4162 20.6938 30.9963 20.1665 30.9963 19.4282V1.70947C30.9963 1.02393 30.4162 0.443848 29.7307 0.443848ZM3.15255 17.7407L3.15255 4.6626H3.9963L3.9963 17.7407C3.9963 18.0044 3.78536 18.1626 3.57442 18.1626C3.31075 18.1626 3.15255 18.0044 3.15255 17.7407ZM28.465 18.1626H6.47481C6.47481 18.0571 6.52755 17.8989 6.52755 17.7407V2.9751L28.465 2.9751V18.1626ZM9.69161 11.8345H16.8635C17.1799 11.8345 17.4963 11.5708 17.4963 11.2017V6.13916C17.4963 5.82275 17.1799 5.50635 16.8635 5.50635H9.69161C9.32247 5.50635 9.0588 5.82275 9.0588 6.13916V11.2017C9.0588 11.5708 9.32247 11.8345 9.69161 11.8345ZM11.1682 7.61572H15.3869V9.7251H11.1682V7.61572ZM9.0588 14.9985C9.0588 15.3677 9.32247 15.6313 9.69161 15.6313H16.8635C17.1799 15.6313 17.4963 15.3677 17.4963 14.9985V13.7329C17.4963 13.4165 17.1799 13.1001 16.8635 13.1001H9.69161C9.32247 13.1001 9.0588 13.4165 9.0588 13.7329V14.9985ZM19.1838 14.9985C19.1838 15.3677 19.4475 15.6313 19.8166 15.6313H25.301C25.6174 15.6313 25.9338 15.3677 25.9338 14.9985V13.7329C25.9338 13.4165 25.6174 13.1001 25.301 13.1001H19.8166C19.4475 13.1001 19.1838 13.4165 19.1838 13.7329V14.9985ZM19.1838 7.40479C19.1838 7.77393 19.4475 8.0376 19.8166 8.0376H25.301C25.6174 8.0376 25.9338 7.77393 25.9338 7.40479V6.13916C25.9338 5.82275 25.6174 5.50635 25.301 5.50635H19.8166C19.4475 5.50635 19.1838 5.82275 19.1838 6.13916V7.40479ZM19.1838 11.2017C19.1838 11.5708 19.4475 11.8345 19.8166 11.8345H25.301C25.6174 11.8345 25.9338 11.5708 25.9338 11.2017V9.93604C25.9338 9.61963 25.6174 9.30322 25.301 9.30322H19.8166C19.4475 9.30322 19.1838 9.61963 19.1838 9.93604V11.2017Z"/>
</svg>
