<svg width="19" height="20" viewBox="0 0 19 20" xmlns="http://www.w3.org/2000/svg">
    <path fill="currentColor" d="M5.5 9.125C4.86719 9.125 4.375 9.65234 4.375 10.25C4.375 10.8828 4.86719 11.375 5.5 11.375C6.09766 11.375 6.625 10.8828 6.625 10.25C6.625 9.65234 6.09766 9.125 5.5 9.125ZM15.6953 3.32422C13.6211 1.60156 10.8789 0.898438 8.17188 1.42578C4.65625 2.12891 1.84375 4.94141 1.17578 8.42188C0.578125 11.375 1.45703 14.3281 3.53125 16.543C5.21875 18.2656 7.39844 19.2852 9.4375 19.2852C9.75391 19.2852 10.0703 19.25 10.3516 19.2148C11.2305 19.0742 11.9336 18.5469 12.3555 17.7383C12.7773 16.8945 12.7773 15.9102 12.3555 15.0664C12.1445 14.6445 12.1445 14.1523 12.4258 13.7305C12.6719 13.3086 13.0586 13.0625 13.5508 13.0625H16.082C17.6992 13.0625 19 11.832 19 10.2148C18.9648 7.54297 17.7695 5.01172 15.6953 3.32422ZM16.082 11.375H13.5508C12.4961 11.375 11.5117 11.9375 10.9844 12.8516C10.4219 13.7656 10.3516 14.8906 10.8438 15.8398C11.0195 16.1914 11.0195 16.6133 10.8438 17C10.7383 17.1758 10.5273 17.457 10.1055 17.5273C8.38281 17.8086 6.27344 16.9648 4.76172 15.3828C3.03906 13.5898 2.33594 11.1641 2.82812 8.77344C3.39062 5.92578 5.67578 3.64062 8.48828 3.11328C10.7031 2.65625 12.918 3.21875 14.6406 4.625C16.3281 5.99609 17.2773 8.03516 17.3125 10.2148C17.3125 10.8828 16.75 11.375 16.082 11.375ZM6.625 5.75C5.99219 5.75 5.5 6.27734 5.5 6.875C5.5 7.50781 5.99219 8 6.625 8C7.22266 8 7.75 7.50781 7.75 6.875C7.75 6.27734 7.22266 5.75 6.625 5.75ZM10 4.625C9.36719 4.625 8.875 5.15234 8.875 5.75C8.875 6.38281 9.36719 6.875 10 6.875C10.5977 6.875 11.125 6.38281 11.125 5.75C11.125 5.15234 10.5977 4.625 10 4.625ZM13.375 5.75C12.7422 5.75 12.25 6.27734 12.25 6.875C12.25 7.50781 12.7422 8 13.375 8C13.9727 8 14.5 7.50781 14.5 6.875C14.5 6.27734 13.9727 5.75 13.375 5.75Z"/>
</svg>
