<svg width="20" height="19" viewBox="0 0 20 19" xmlns="http://www.w3.org/2000/svg">
    <path fill="currentColor" d="M18.2617 2.85156L16.3633 0.953125C15.4492 0.0390625 13.9375 0.0390625 13.0234 0.953125L1.84375 12.0625L1 17.3008C0.894531 17.8633 1.38672 18.3555 1.94922 18.25L7.1875 17.4062L18.2969 6.22656C19.2109 5.3125 19.2109 3.80078 18.2617 2.85156ZM5.21875 10.8672L11.1953 4.92578L14.3242 8.05469L8.38281 14.0312V12.5547H6.69531V10.8672H5.21875ZM3.88281 16.3867L2.86328 15.3672L3.32031 12.8008L3.95312 12.1328H5.42969V13.8203H7.11719V15.2969L6.44922 15.9297L3.88281 16.3867ZM17.207 5.13672L15.4844 6.85938L12.3906 3.76562L14.1133 2.04297C14.4297 1.72656 14.957 1.72656 15.2734 2.04297L17.1719 3.94141C17.5234 4.29297 17.5234 4.82031 17.207 5.13672Z"/>
</svg>
