<svg width="13" height="18" viewBox="0 0 13 18" xmlns="http://www.w3.org/2000/svg">
    <path fill="currentColor" d="M10.2852 6.33398L10.0859 4.90625H11.0156C11.4473 4.90625 11.8125 4.57422 11.8125 4.10938V0.921875C11.8125 0.490234 11.4473 0.125 11.0156 0.125H1.98438C1.51953 0.125 1.1875 0.490234 1.1875 0.921875V4.10938C1.1875 4.57422 1.51953 4.90625 1.98438 4.90625H2.88086L2.68164 6.33398C1.08789 7.42969 0.125 9.12305 0.125 11.0156C0.125 11.4805 0.457031 11.8125 0.921875 11.8125H5.70312V15.2656C5.70312 15.2988 5.70312 15.332 5.70312 15.3652L6.23438 16.959C6.30078 17.1914 6.66602 17.1914 6.73242 16.959L7.26367 15.3652C7.26367 15.332 7.29688 15.2988 7.29688 15.2656V11.8125H12.0781C12.5098 11.8125 12.875 11.4805 12.875 11.0156C12.875 9.12305 11.8789 7.42969 10.2852 6.33398ZM1.78516 10.2188C2.05078 8.95703 2.98047 7.89453 4.17578 7.33008L4.70703 3.3125H2.78125V1.71875H10.2188V3.3125H8.29297L8.82422 7.33008C9.98633 7.89453 10.916 8.95703 11.1816 10.2188H1.78516Z"/>
</svg>
