<svg width="12" height="12" viewBox="0 0 12 12" xmlns="http://www.w3.org/2000/svg">
    <path fill="currentColor" d="M10.7812 5.4375H6.5625V1.21875C6.5625 0.984375 6.32812 0.75 6.09375 0.75H5.15625C4.89258 0.75 4.6875 0.984375 4.6875 1.21875V5.4375H0.46875C0.205078 5.4375 0 5.67188 0 5.90625V6.84375C0 7.10742 0.205078 7.3125 0.46875 7.3125H4.6875V11.5312C4.6875 11.7949 4.89258 12 5.15625 12H6.09375C6.32812 12 6.5625 11.7949 6.5625 11.5312V7.3125H10.7812C11.0156 7.3125 11.25 7.10742 11.25 6.84375V5.90625C11.25 5.67188 11.0156 5.4375 10.7812 5.4375Z"/>
</svg>
