<svg width="19" height="19" viewBox="0 0 19 19" xmlns="http://www.w3.org/2000/svg">
    <path fill="currentColor" d="M17.207 10.375H8.875V2.04297C8.875 1.72656 8.59375 1.48047 8.3125 1.48047C8.27734 1.48047 8.24219 1.48047 8.24219 1.48047C4.05859 2.07812 0.859375 5.73438 1 10.1289C1.14062 14.4883 4.76172 18.1094 9.12109 18.25C9.22656 18.25 9.33203 18.25 9.4375 18.25C13.6914 18.25 17.1719 15.1211 17.7695 11.0078C17.8047 10.6914 17.5234 10.375 17.207 10.375ZM9.4375 16.5625C9.33203 16.5625 9.26172 16.5625 9.19141 16.5625C5.71094 16.457 2.79297 13.5391 2.6875 10.0586C2.58203 7.07031 4.44531 4.43359 7.1875 3.48438V12.0625H15.7656C14.8516 14.7344 12.3203 16.5625 9.4375 16.5625ZM11.125 0.285156C11.125 0.285156 11.125 0.25 11.0898 0.25C10.8086 0.25 10.5625 0.53125 10.5625 0.847656V8.6875H18.4023C18.7188 8.6875 19 8.44141 18.9648 8.125C18.6836 3.90625 15.3438 0.566406 11.125 0.285156Z"/>
</svg>
