<svg width="15" height="19" viewBox="0 0 15 19" xmlns="http://www.w3.org/2000/svg">
    <path fill="currentColor" d="M10.875 8.96875C10.875 8.75781 10.6641 8.54688 10.4531 8.54688H4.54687C4.30078 8.54688 4.125 8.75781 4.125 8.96875V9.95312C4.125 10.1992 4.30078 10.375 4.54687 10.375H10.4531C10.6641 10.375 10.875 10.1992 10.875 9.95312V8.96875ZM10.4531 11.5H4.54687C4.30078 11.5 4.125 11.7109 4.125 11.9219L4.125 12.9062C4.125 13.1523 4.30078 13.3281 4.54687 13.3281H10.4531C10.6641 13.3281 10.875 13.1523 10.875 12.9062V11.9219C10.875 11.7109 10.6641 11.5 10.4531 11.5ZM14.25 4.89063C14.25 4.46875 14.0391 4.01172 13.7227 3.69531L10.8047 0.777344C10.4883 0.460938 10.0312 0.25 9.60938 0.25L2.4375 0.25C1.48828 0.25 0.75 1.02344 0.75 1.9375L0.75 16.5625C0.75 17.5117 1.48828 18.25 2.4375 18.25H12.5625C13.4766 18.25 14.25 17.5117 14.25 16.5625L14.25 4.89063ZM9.75 2.07813L12.4219 4.75H9.75V2.07813ZM12.5625 16.5625H2.4375L2.4375 1.9375L8.0625 1.9375V5.59375C8.0625 6.08594 8.41406 6.4375 8.90625 6.4375H12.5625L12.5625 16.5625Z"/>
</svg>
