<svg width="16" height="21" viewBox="0 0 16 21" xmlns="http://www.w3.org/2000/svg">
    <path fill="currentColor" d="M8.27344 0.5C5.38281 0.5 3.19531 1.71094 1.55469 4.13281C0.8125 5.22656 1.04688 6.71094 2.10156 7.53125L3.54688 8.625C3.9375 8.9375 4.48438 9.13281 4.99219 9.13281C4.5625 9.875 4.32812 10.6953 4.32812 11.6328V12.1016C4.32812 12.7266 4.5625 13.3125 4.95312 13.7422C4.28906 14.4844 3.9375 15.4219 3.9375 16.4375C3.9375 18.7031 5.73438 20.5 8 20.5C10.2266 20.5 12.0625 18.7031 12.0625 16.4375C12.0625 15.4219 11.6719 14.4844 11.0078 13.7422C11.3594 13.3906 11.5938 12.8828 11.6328 12.375C12.7266 11.7109 15.3828 10.4609 15.3828 6.98438C15.3828 3.3125 11.8281 0.5 8.27344 0.5ZM8 18.625C6.78906 18.625 5.8125 17.6484 5.8125 16.4375C5.8125 15.2656 6.78906 14.25 8 14.25C9.17188 14.25 10.1875 15.2656 10.1875 16.4375C10.1875 17.6484 9.17188 18.625 8 18.625ZM9.75781 11.75V12.1016C9.75781 12.4141 9.48438 12.6875 9.17188 12.6875H6.78906C6.47656 12.6875 6.20312 12.4141 6.20312 12.1016V11.6328C6.20312 9.79688 7.57031 9.05469 8.625 8.46875C9.5625 7.96094 10.1094 7.60938 10.1094 6.94531C10.1094 6.04688 8.97656 5.46094 8.03906 5.46094C6.86719 5.46094 6.28125 6.04688 5.53906 7.02344C5.30469 7.25781 4.91406 7.33594 4.67969 7.10156L3.23438 6.04688C2.96094 5.85156 2.92188 5.46094 3.07812 5.1875C4.32812 3.39062 5.85156 2.375 8.27344 2.375C10.8125 2.375 13.5078 4.36719 13.5078 6.98438C13.5078 10.4219 9.75781 10.5 9.75781 11.75Z"/>
</svg>
