<svg width="19" height="14" viewBox="0 0 19 14" xmlns="http://www.w3.org/2000/svg">
    <g fill="currentColor">
        <path fill-rule="evenodd" clip-rule="evenodd" d="M5.0904 7.75922L5.06144 7.75849C3.63402 7.73082 2.47136 6.5456 2.47136 5.11722C2.47136 3.66054 3.65663 2.47528 5.11331 2.47528C6.56999 2.47528 7.75526 3.66054 7.75526 5.11722C7.75526 8.43111 6.6817 10.9012 6.22394 11.8035H5.99776C6.08811 11.4429 6.18546 11.0294 6.26309 10.6382C6.34941 10.2033 6.41291 9.78852 6.41291 9.50431C6.41291 9.0688 6.38152 8.69779 6.21131 8.38295C6.05732 8.09809 5.73421 7.76309 5.0904 7.75922ZM0.900391 5.11722C0.900391 2.79413 2.79022 0.904297 5.11331 0.904297C7.43641 0.904297 9.32623 2.79413 9.32623 5.11722C9.32623 8.18585 8.40207 10.7154 7.74784 12.1227C7.37485 12.925 6.55005 13.3745 5.67679 13.3745H4.97626C4.45505 13.3745 4.07837 12.8762 4.22053 12.3747C4.34098 11.9498 4.49683 11.3532 4.62248 10.8003C4.74918 10.2428 4.84194 9.74306 4.84194 9.50431C4.84194 9.43172 4.84064 9.37127 4.83859 9.3211C3.80309 9.25457 2.83911 8.81403 2.10719 8.0687C1.3291 7.27636 0.900391 6.2279 0.900391 5.11722Z"/>
        <path fill-rule="evenodd" clip-rule="evenodd" d="M13.8629 7.75922L13.8339 7.75849C12.4065 7.73082 11.2438 6.5456 11.2438 5.11722C11.2438 3.66054 12.4291 2.47528 13.8858 2.47528C15.3425 2.47528 16.5277 3.66054 16.5277 5.11722C16.5277 8.43111 15.4542 10.9012 14.9964 11.8035H14.7702C14.8606 11.4429 14.9579 11.0294 15.0356 10.6382C15.1219 10.2033 15.1854 9.78852 15.1854 9.50431C15.1854 9.0688 15.154 8.69779 14.9838 8.38295C14.8298 8.09809 14.5067 7.76309 13.8629 7.75922ZM9.67285 5.11722C9.67285 2.79413 11.5627 0.904297 13.8858 0.904297C16.2089 0.904297 18.0987 2.79413 18.0987 5.11722C18.0987 8.18585 17.1745 10.7154 16.5203 12.1227C16.1473 12.925 15.3225 13.3745 14.4493 13.3745H13.7487C13.2275 13.3745 12.8508 12.8762 12.993 12.3747C13.1134 11.9498 13.2693 11.3532 13.3949 10.8003C13.5216 10.2428 13.6144 9.74306 13.6144 9.50431C13.6144 9.43172 13.6131 9.37127 13.6111 9.3211C12.5755 9.25457 11.6116 8.81403 10.8796 8.0687C10.1016 7.27636 9.67285 6.2279 9.67285 5.11722Z"/>
    </g>
</svg>
