<svg width="17" height="18" viewBox="0 0 17 18" xmlns="http://www.w3.org/2000/svg">
    <path fill="currentColor" d="M16.8672 16.1973L12.8496 12.1797C12.75 12.1133 12.6504 12.0469 12.5508 12.0469H12.1191C13.1484 10.8516 13.8125 9.25781 13.8125 7.53125C13.8125 3.74609 10.6914 0.625 6.90625 0.625C3.08789 0.625 0 3.74609 0 7.53125C0 11.3496 3.08789 14.4375 6.90625 14.4375C8.63281 14.4375 10.1934 13.8066 11.4219 12.7773V13.209C11.4219 13.3086 11.4551 13.4082 11.5215 13.5078L15.5391 17.5254C15.7051 17.6914 15.9707 17.6914 16.1035 17.5254L16.8672 16.7617C17.0332 16.6289 17.0332 16.3633 16.8672 16.1973ZM6.90625 12.8438C3.95117 12.8438 1.59375 10.4863 1.59375 7.53125C1.59375 4.60938 3.95117 2.21875 6.90625 2.21875C9.82812 2.21875 12.2188 4.60938 12.2188 7.53125C12.2188 10.4863 9.82812 12.8438 6.90625 12.8438Z"/>
</svg>
