<svg width="24" height="20" viewBox="0 0 24 20" xmlns="http://www.w3.org/2000/svg">
    <path fill="currentColor" stroke="currentColor" d="M1.57638 1.29987L1.57637 1.29988C0.891095 1.86247 0.599013 2.73658 0.825498 3.57875C0.825498 3.57875 0.825498 3.57875 0.825499 3.57875L2.55231 10L0.825498 16.4212C0.599015 17.2634 0.891043 18.1375 1.57632 18.7001C2.26112 19.2623 3.20214 19.4034 4.03121 19.0772L3.93968 18.8445L4.03121 19.0772L21.7813 12.0932C22.6792 11.74 23.25 10.9386 23.25 10C23.25 9.06138 22.6792 8.26003 21.7813 7.90677L4.03122 0.922823C4.03122 0.922822 4.03122 0.92282 4.03121 0.922819C3.20059 0.595971 2.25984 0.738862 1.57638 1.29987ZM21.1042 10.4989L3.35414 17.4829C3.13838 17.5677 2.91034 17.5315 2.73737 17.3895L2.57873 17.5827L2.73737 17.3895C2.5662 17.249 2.50406 17.0518 2.55749 16.8531L4.16884 10.8612H10.3823C10.8637 10.8612 11.2769 10.4879 11.2769 9.99996C11.2769 9.51196 10.8637 9.13875 10.3823 9.13875H4.16888L2.55749 3.14692C2.55749 3.14691 2.55749 3.14691 2.55749 3.1469C2.50407 2.94818 2.56621 2.75101 2.73737 2.61049C2.91033 2.46849 3.13828 2.43227 3.35409 2.51714L21.1042 9.50107C21.4365 9.63184 21.4609 9.91149 21.4609 10C21.4609 10.0885 21.4365 10.3682 21.1042 10.4989Z" stroke-width="0.5"/>
</svg>
