<svg width="16" height="16" viewBox="0 0 16 16" xmlns="http://www.w3.org/2000/svg">
    <path fill="currentColor" d="M13.8906 1.08008L1.70312 8.11133C0.677734 8.69727 0.765625 10.1914 1.84961 10.6309L5.21875 12.0078V14.4688C5.21875 15.8457 6.94727 16.4023 7.73828 15.3184L9.02734 13.5898L12.3086 14.9375C12.4844 15.0254 12.6602 15.0547 12.8359 15.0547C13.0703 15.0547 13.3047 14.9961 13.5391 14.8789C13.9199 14.6445 14.1543 14.293 14.2422 13.8535L15.9707 2.51562C16.1465 1.34375 14.8867 0.494141 13.8906 1.08008ZM6.625 14.4688V12.5938L7.67969 13.0332L6.625 14.4688ZM12.8359 13.6484L8.32422 11.7734L12.4551 5.85547C12.748 5.38672 12.1621 4.85938 11.752 5.24023L5.54102 10.6309L2.40625 9.3125L14.5938 2.28125L12.8359 13.6484Z"/>
</svg>
