<svg width="16" height="16" viewBox="0 0 16 16" xmlns="http://www.w3.org/2000/svg">
    <path fill="currentColor" d="M14.125 7.40625L15.125 6.84375C15.4062 6.6875 15.5625 6.34375 15.4688 6C15.125 4.6875 14.4062 3.5 13.4688 2.53125C13.2188 2.3125 12.8438 2.25 12.5625 2.40625L11.5625 3C11.3125 2.8125 10.8438 2.53125 10.5312 2.40625V1.25C10.5312 0.9375 10.2812 0.59375 9.96875 0.53125C8.6875 0.1875 7.28125 0.1875 6 0.53125C5.65625 0.625 5.4375 0.90625 5.4375 1.25V2.40625C5.125 2.53125 4.65625 2.8125 4.40625 3L3.40625 2.40625C3.125 2.25 2.75 2.3125 2.5 2.53125C1.5625 3.5 0.84375 4.6875 0.5 6C0.40625 6.34375 0.5625 6.6875 0.84375 6.84375L1.84375 7.40625C1.8125 7.59375 1.8125 7.84375 1.8125 8C1.8125 8.1875 1.8125 8.4375 1.84375 8.59375L0.84375 9.1875C0.5625 9.34375 0.40625 9.6875 0.5 10.0312C0.84375 11.3438 1.5625 12.5312 2.5 13.5C2.75 13.7188 3.125 13.7812 3.40625 13.625L4.40625 13.0312C4.65625 13.2188 5.125 13.5 5.4375 13.625V14.7812C5.4375 15.0938 5.6875 15.4375 6 15.5C7.28125 15.8438 8.6875 15.8438 9.96875 15.5C10.3125 15.4062 10.5312 15.125 10.5312 14.7812V13.625C10.8438 13.5 11.3125 13.2188 11.5625 13.0312L12.5625 13.625C12.8438 13.7812 13.2188 13.7188 13.4688 13.5C14.4062 12.5312 15.125 11.3438 15.4688 10.0312C15.5625 9.6875 15.4062 9.34375 15.125 9.1875L14.125 8.59375C14.1562 8.21875 14.1562 7.8125 14.125 7.40625ZM12.4688 9.40625L13.8438 10.1875C13.6562 10.75 13.1562 11.5625 12.7812 12L11.4062 11.2188C10.4062 12.0625 10.2812 12.1562 9.03125 12.5938V14.1875C8.75 14.2188 8.28125 14.2812 8 14.2812C7.6875 14.2812 7.21875 14.2188 6.9375 14.1875V12.5938C5.6875 12.1562 5.53125 12.0625 4.5625 11.2188L3.1875 12C2.8125 11.5625 2.3125 10.75 2.125 10.1875L3.5 9.40625C3.25 8.09375 3.25 7.9375 3.5 6.625L2.125 5.84375C2.375 5.1875 2.71875 4.5625 3.1875 4.03125L4.5625 4.8125C5.5625 3.96875 5.6875 3.875 6.9375 3.4375V1.84375C7.21875 1.8125 7.6875 1.75 8 1.75C8.28125 1.75 8.75 1.8125 9.03125 1.84375V3.4375C10.2812 3.875 10.4375 3.96875 11.4062 4.8125L12.7812 4.03125C13.1562 4.46875 13.6562 5.28125 13.8438 5.84375L12.4688 6.625C12.7188 7.9375 12.7188 8.09375 12.4688 9.40625ZM8 5C6.34375 5 5 6.375 5 8C5 9.65625 6.34375 11 8 11C9.625 11 11 9.65625 11 8C11 6.375 9.625 5 8 5ZM8 9.5C7.15625 9.5 6.5 8.84375 6.5 8C6.5 7.1875 7.15625 6.5 8 6.5C8.8125 6.5 9.5 7.1875 9.5 8C9.5 8.84375 8.8125 9.5 8 9.5Z"/>
</svg>
