<svg width="22" height="23" viewBox="0 0 22 23" xmlns="http://www.w3.org/2000/svg">
    <path fill="currentColor" d="M11 18.3672V5.04688L4.85547 7.625C5.19922 12.6094 7.64844 16.3477 11 18.3672ZM20.0234 4.35938L11.7734 0.921875C11.5586 0.835938 11.2148 0.792969 11 0.792969C10.7422 0.792969 10.3984 0.835938 10.1836 0.921875L1.93359 4.35938C1.16016 4.70312 0.6875 5.43359 0.6875 6.25C0.6875 14.8008 5.58594 20.6875 10.1836 22.6211C10.6992 22.8359 11.2578 22.8359 11.7734 22.6211C15.4688 21.0742 21.3125 15.7891 21.3125 6.25C21.3125 5.43359 20.7969 4.70312 20.0234 4.35938ZM11 20.6875C6.78906 18.9688 2.75 13.5547 2.75 6.25L11 2.8125L19.25 6.25C19.25 13.7266 14.9961 19.0117 11 20.6875Z"/>
</svg>
