<svg width="21" height="21" viewBox="0 0 21 21" xmlns="http://www.w3.org/2000/svg">
    <path fill="currentColor" d="M13.9375 8.3125C12.7266 8.3125 11.75 9.32812 11.75 10.5C11.75 11.7109 12.7266 12.6875 13.9375 12.6875C15.1094 12.6875 16.125 11.7109 16.125 10.5C16.125 9.32812 15.1094 8.3125 13.9375 8.3125ZM7.0625 8.3125C5.85156 8.3125 4.875 9.32812 4.875 10.5C4.875 11.7109 5.85156 12.6875 7.0625 12.6875C8.23438 12.6875 9.25 11.7109 9.25 10.5C9.25 9.32812 8.23438 8.3125 7.0625 8.3125ZM10.5 0.5C4.95312 0.5 0.5 4.44531 0.5 9.25C0.5 12.0234 1.90625 14.4453 4.17188 16.0469C4.5625 16.3203 4.75781 16.75 4.71875 17.2188L4.44531 19.0938C4.32812 19.8359 4.91406 20.5 5.65625 20.5H15.3047C16.0469 20.5 16.6328 19.8359 16.5156 19.0938L16.2812 17.2188C16.2031 16.75 16.3984 16.3203 16.7891 16.0469C19.0547 14.4453 20.5 12.0234 20.5 9.25C20.5 4.44531 16.0078 0.5 10.5 0.5ZM15.6953 14.5234C14.7578 15.2266 14.25 16.3594 14.4062 17.4922L14.5625 18.625H13V17.0625C13 16.9062 12.8438 16.75 12.6875 16.75H12.0625C11.8672 16.75 11.75 16.9062 11.75 17.0625V18.625H9.25V17.0625C9.25 16.9062 9.09375 16.75 8.9375 16.75H8.3125C8.11719 16.75 8 16.9062 8 17.0625V18.625H6.39844L6.55469 17.4922C6.71094 16.3594 6.20312 15.2266 5.26562 14.5234C3.42969 13.1953 2.375 11.2812 2.375 9.25C2.375 5.46094 6.00781 2.375 10.5 2.375C14.9531 2.375 18.625 5.46094 18.625 9.25C18.625 11.2812 17.5312 13.1953 15.6953 14.5234Z"/>
</svg>
