<svg width="15" height="19" viewBox="0 0 15 19" xmlns="http://www.w3.org/2000/svg">
    <path fill="currentColor" d="M6.40625 14.5H4.6875V1.375C4.6875 1.0625 4.375 0.75 4.0625 0.75H3.4375C3.08594 0.75 2.8125 1.0625 2.8125 1.375V14.5H1.09375H1.05469C0.820312 14.5 0.585938 14.7344 0.585938 14.9688C0.585938 15.0859 0.664062 15.2422 0.742188 15.3203L3.39844 18.1328C3.47656 18.2109 3.63281 18.25 3.71094 18.25C3.82812 18.25 3.98438 18.2109 4.0625 18.1328L6.71875 15.3203C6.79688 15.2422 6.83594 15.0859 6.83594 14.9688C6.83594 14.7344 6.64062 14.5391 6.40625 14.5ZM14.2188 3.71875L11.5625 0.90625C11.4844 0.828125 11.3281 0.789062 11.25 0.789062C11.1328 0.789062 10.9766 0.828125 10.8984 0.90625L8.24219 3.71875C8.16406 3.79688 8.125 3.95312 8.125 4.03125C8.125 4.30469 8.32031 4.5 8.59375 4.5H10.3125V17.625C10.3125 17.9766 10.5859 18.25 10.9375 18.25H11.5625C11.875 18.25 12.1875 17.9766 12.1875 17.625V4.5H13.9062C14.1406 4.5 14.3359 4.30469 14.3359 4.03125C14.3359 3.95312 14.2969 3.79688 14.2188 3.71875Z"/>
</svg>
