<svg width="16" height="15" viewBox="0 0 16 15" xmlns="http://www.w3.org/2000/svg">
    <path fill="currentColor" d="M7.76923 0.460938C3.75556 0.460938 0.503605 3.74219 0.503605 7.72656C0.503605 11.7402 3.75556 14.9922 7.76923 14.9922C11.7536 14.9922 15.0349 11.7402 15.0349 7.72656C15.0349 3.74219 11.7536 0.460938 7.76923 0.460938ZM7.76923 13.5859C4.51728 13.5859 1.90985 10.9785 1.90985 7.72656C1.90985 4.50391 4.51728 1.86719 7.76923 1.86719C10.9919 1.86719 13.6286 4.50391 13.6286 7.72656C13.6286 10.9785 10.9919 13.5859 7.76923 13.5859ZM8.9997 10.5391C8.9997 9.86523 8.44306 9.30859 7.76923 9.30859C7.0661 9.30859 6.53876 9.86523 6.53876 10.5391C6.53876 11.2422 7.0661 11.7695 7.76923 11.7695C8.44306 11.7695 8.9997 11.2422 8.9997 10.5391ZM6.59735 4.35742L6.80243 8.3418C6.80243 8.51758 6.97821 8.66406 7.154 8.66406H8.35517C8.53095 8.66406 8.70673 8.51758 8.70673 8.3418L8.91181 4.35742C8.91181 4.15234 8.76532 3.97656 8.56025 3.97656H6.94892C6.74384 3.97656 6.59735 4.15234 6.59735 4.35742Z"/>
</svg>
