<svg width="20" height="15" viewBox="0 0 20 15" xmlns="http://www.w3.org/2000/svg">
    <path fill="currentColor" d="M15.4688 11.25H16.3672C16.6016 11.25 16.875 11.0156 16.875 10.7812V1.75781C16.875 1.52344 16.6016 1.25 16.3672 1.25H15.4688C15.2344 1.25 15 1.52344 15 1.75781V10.7812C15 11.0156 15.2344 11.25 15.4688 11.25ZM7.96875 11.25H8.86719C9.10156 11.25 9.375 11.0156 9.375 10.7812V3.00781C9.375 2.77344 9.10156 2.5 8.86719 2.5H7.96875C7.73438 2.5 7.5 2.77344 7.5 3.00781V10.7812C7.5 11.0156 7.73438 11.25 7.96875 11.25ZM11.7188 11.25H12.6172C12.8516 11.25 13.125 11.0156 13.125 10.7812V5.50781C13.125 5.27344 12.8516 5 12.6172 5H11.7188C11.4844 5 11.25 5.27344 11.25 5.50781V10.7812C11.25 11.0156 11.4844 11.25 11.7188 11.25ZM19.375 13.125H1.875V0.625C1.875 0.3125 1.5625 0 1.25 0H0.625C0.273438 0 0 0.3125 0 0.625V13.75C0 14.4531 0.546875 15 1.25 15H19.375C19.6875 15 20 14.7266 20 14.375V13.75C20 13.4375 19.6875 13.125 19.375 13.125ZM4.21875 11.25H5.11719C5.35156 11.25 5.625 11.0156 5.625 10.7812V8.00781C5.625 7.77344 5.35156 7.5 5.11719 7.5H4.21875C3.98438 7.5 3.75 7.77344 3.75 8.00781V10.7812C3.75 11.0156 3.98438 11.25 4.21875 11.25Z"/>
</svg>
