<svg width="16" height="14" viewBox="0 0 16 14" xmlns="http://www.w3.org/2000/svg">
    <path fill="currentColor" d="M4.66376 5.32031H7.97431L6.62665 4.64648C6.2165 4.44141 5.86493 3.91406 5.86493 3.44531C5.86493 3.00586 6.2165 2.47852 6.62665 2.27344C6.86103 2.15625 7.24189 2.06836 7.50556 2.03906H9.35126C9.70282 2.03906 10.1716 2.30273 10.4059 2.5957L10.8454 3.18164C10.9333 3.26953 11.0798 3.35742 11.2263 3.35742C11.3142 3.35742 11.4313 3.32812 11.4899 3.26953L12.2517 2.71289C12.3688 2.625 12.4567 2.47852 12.4567 2.33203C12.4567 2.24414 12.3981 2.12695 12.3395 2.03906L11.9001 1.45312C11.3727 0.75 10.2302 0.164062 9.35126 0.164062H7.50556C7.00751 0.193359 6.2165 0.369141 5.77704 0.574219C4.60517 1.18945 3.90204 2.41992 4.01923 3.73828C4.07782 4.32422 4.3122 4.88086 4.66376 5.32031ZM14.8005 6.25781H0.73798C0.474308 6.25781 0.26923 6.49219 0.26923 6.72656V7.19531C0.26923 7.45898 0.474308 7.66406 0.73798 7.66406H14.8005C15.0349 7.66406 15.2692 7.45898 15.2692 7.19531V6.72656C15.2692 6.49219 15.0349 6.25781 14.8005 6.25781ZM12.0759 8.60156H9.40985L9.82001 8.83594C10.2302 9.04102 10.5817 9.56836 10.5817 10.0078C10.5817 10.4766 10.2302 11.0039 9.82001 11.209C9.58564 11.3262 9.20478 11.4141 8.9411 11.4141H7.1247H7.0954C6.74384 11.4141 6.27509 11.1797 6.04071 10.8867L5.60126 10.3008C5.51337 10.2129 5.36689 10.125 5.2204 10.125C5.13251 10.125 5.01532 10.1543 4.95673 10.2129L4.19501 10.7695C4.07782 10.8574 3.98993 11.0039 3.98993 11.1504C3.98993 11.2383 4.04853 11.3555 4.10712 11.4141L4.54657 12.0293C5.07392 12.7324 6.2165 13.2891 7.0954 13.2891H8.9411C9.43915 13.2891 10.2302 13.1133 10.6696 12.9082C11.8415 12.293 12.5446 11.0625 12.4274 9.74414C12.3981 9.33398 12.2517 8.95312 12.0759 8.60156Z"/>
</svg>
