<svg width="20" height="21" viewBox="0 0 20 21" xmlns="http://www.w3.org/2000/svg">
    <path fill="currentColor" d="M19.5312 0.8125H18.4375C18.1641 0.8125 17.9688 1.04688 17.9688 1.32031L18.0469 5.14844C16.3281 2.57031 13.3594 0.8125 10 0.8125C5.23438 0.8125 1.28906 4.21094 0.46875 8.70312C0.390625 9.01562 0.625 9.25 0.9375 9.25H2.03125C2.26562 9.25 2.46094 9.13281 2.5 8.89844C3.24219 5.46094 6.28906 2.84375 10 2.84375C13.0859 2.84375 15.7422 4.71875 16.9531 7.375L12.0312 7.25781C11.7578 7.25781 11.5625 7.45312 11.5625 7.72656V8.78125C11.5625 9.05469 11.7578 9.25 12.0312 9.25H19.5312C19.7656 9.25 20 9.05469 20 8.78125V1.28125C20 1.04688 19.7656 0.8125 19.5312 0.8125ZM19.0234 11.75H17.9297C17.6953 11.75 17.5 11.9062 17.4609 12.1406C16.7188 15.5781 13.6719 18.1562 10 18.1562C6.875 18.1562 4.21875 16.3203 3.00781 13.6641L7.92969 13.7812C8.20312 13.7812 8.4375 13.5859 8.4375 13.3125V12.2188C8.4375 11.9844 8.20312 11.75 7.96875 11.75H0.46875C0.195312 11.75 0 11.9844 0 12.2188V19.7188C0 19.9922 0.195312 20.1875 0.46875 20.1875H1.52344C1.79688 20.1875 1.99219 19.9922 1.99219 19.7188L1.91406 15.8906C3.63281 18.4688 6.60156 20.1875 10 20.1875C14.7266 20.1875 18.6719 16.8281 19.4922 12.3359C19.5703 12.0234 19.3359 11.75 19.0234 11.75Z"/>
</svg>
