<svg width="19" height="19" viewBox="0 0 19 19" xmlns="http://www.w3.org/2000/svg">
    <path fill="currentColor" d="M17.4727 8.19531L10.0547 0.777344C9.77344 0.496094 9.24609 0.25 8.85938 0.25H1.6875C0.738281 0.25 0 1.02344 0 1.9375V9.14453C0 9.53125 0.210938 10.0586 0.492188 10.3398L7.91016 17.7578C8.57812 18.4258 9.66797 18.4258 10.3008 17.7578L17.4727 10.5859C18.1406 9.95312 18.1406 8.86328 17.4727 8.19531ZM9.10547 16.5625L1.6875 9.14453V1.9375H8.85938L16.3125 9.39062L9.10547 16.5625ZM6.75 5.3125C6.75 4.39844 5.97656 3.625 5.0625 3.625C4.11328 3.625 3.375 4.39844 3.375 5.3125C3.375 6.26172 4.11328 7 5.0625 7C5.97656 7 6.75 6.26172 6.75 5.3125Z"/>
</svg>
