<svg width="17" height="17" viewBox="0 0 17 17" xmlns="http://www.w3.org/2000/svg">
    <path fill="currentColor" d="M15.6094 0.262695H0.984375C0.667969 0.262695 0.421875 0.543945 0.421875 0.825195V3.6377C0.421875 3.9541 0.667969 4.2002 0.984375 4.2002H1.54688C1.82812 4.2002 2.10938 3.9541 2.10938 3.6377V2.5127H7.17188V14.3252H5.48438C5.16797 14.3252 4.92188 14.6064 4.92188 14.8877V15.4502C4.92188 15.7666 5.16797 16.0127 5.48438 16.0127H11.1094C11.3906 16.0127 11.6719 15.7666 11.6719 15.4502V14.8877C11.6719 14.6064 11.3906 14.3252 11.1094 14.3252H9.42188V2.5127H14.4844V3.6377C14.4844 3.9541 14.7305 4.2002 15.0469 4.2002H15.6094C15.8906 4.2002 16.1719 3.9541 16.1719 3.6377V0.825195C16.1719 0.543945 15.8906 0.262695 15.6094 0.262695Z"/>
</svg>
