<svg width="18" height="21" viewBox="0 0 18 21" xmlns="http://www.w3.org/2000/svg">
    <path fill="currentColor" d="M15.875 9.875H5.25V6.20312C5.25 4.13281 6.89062 2.41406 8.96094 2.375C11.0312 2.375 12.75 4.05469 12.75 6.125V7.0625C12.75 7.60938 13.1406 8 13.6875 8C14.1953 8 14.625 7.60938 14.625 7.0625V6.20312C14.625 3.07812 12.125 0.539062 9 0.5C5.875 0.5 3.375 3.03906 3.375 6.125V9.875H2.125C1.07031 9.875 0.25 10.7344 0.25 11.75V18.625C0.25 19.6797 1.07031 20.5 2.125 20.5H15.875C16.8906 20.5 17.75 19.6797 17.75 18.625V11.75C17.75 10.7344 16.8906 9.875 15.875 9.875ZM15.875 18.625H2.125V11.75H15.875V18.625ZM9 17.375C9.58594 17.375 10.0938 16.9062 10.0938 16.2812V14.0938C10.0938 13.5078 9.58594 13 9 13C8.375 13 7.90625 13.5078 7.90625 14.0938V16.2812C7.90625 16.9062 8.375 17.375 9 17.375Z"/>
</svg>
