<svg width="23" height="18" viewBox="0 0 23 18" xmlns="http://www.w3.org/2000/svg">
    <path fill="currentColor" d="M7.875 10.125C10.6523 10.125 12.9375 7.875 12.9375 5.0625C12.9375 2.28516 10.6523 0 7.875 0C5.0625 0 2.8125 2.28516 2.8125 5.0625C2.8125 7.875 5.0625 10.125 7.875 10.125ZM7.875 1.6875C9.70312 1.6875 11.25 3.23438 11.25 5.0625C11.25 6.92578 9.70312 8.4375 7.875 8.4375C6.01172 8.4375 4.5 6.92578 4.5 5.0625C4.5 3.23438 6.01172 1.6875 7.875 1.6875ZM11.0039 10.6875C9.98438 10.6875 9.52734 11.25 7.875 11.25C6.1875 11.25 5.73047 10.6875 4.71094 10.6875C2.10938 10.6875 0 12.832 0 15.4336V16.3125C0 17.2617 0.738281 18 1.6875 18H14.0625C14.9766 18 15.75 17.2617 15.75 16.3125V15.4336C15.75 12.832 13.6055 10.6875 11.0039 10.6875ZM14.0625 16.3125H1.6875V15.4336C1.6875 13.7461 3.02344 12.375 4.71094 12.375C5.23828 12.375 6.04688 12.9375 7.875 12.9375C9.66797 12.9375 10.4766 12.375 11.0039 12.375C12.6914 12.375 14.0625 13.7461 14.0625 15.4336V16.3125ZM21.9375 7.59375H19.4062V5.0625C19.4062 4.78125 19.125 4.5 18.8438 4.5H18.2812C17.9648 4.5 17.7188 4.78125 17.7188 5.0625V7.59375H15.1875C14.8711 7.59375 14.625 7.875 14.625 8.15625V8.71875C14.625 9.03516 14.8711 9.28125 15.1875 9.28125H17.7188V11.8125C17.7188 12.1289 17.9648 12.375 18.2812 12.375H18.8438C19.125 12.375 19.4062 12.1289 19.4062 11.8125V9.28125H21.9375C22.2188 9.28125 22.5 9.03516 22.5 8.71875V8.15625C22.5 7.875 22.2188 7.59375 21.9375 7.59375Z"/>
</svg>
