<svg width="23" height="21" viewBox="0 0 23 21" xmlns="http://www.w3.org/2000/svg">
    <path d="M20.5 3H14.875V1.75C14.875 1.08594 14.2891 0.5 13.625 0.5H9.875C9.17188 0.5 8.625 1.08594 8.625 1.75V3H3C1.59375 3 0.5 4.13281 0.5 5.5V18C0.5 19.4062 1.59375 20.5 3 20.5H20.5C21.8672 20.5 23 19.4062 23 18V5.5C23 4.13281 21.8672 3 20.5 3ZM10.5 2.375H13V4.875H10.5V2.375ZM21.125 18C21.125 18.3516 20.8125 18.625 20.5 18.625H16.0859C16.0859 18.5859 16.125 18.5469 16.125 18.5078V17.7656C16.125 16.5156 14.9141 15.5 13.4688 15.5C13.0781 15.5 12.7656 15.8125 11.75 15.8125C10.6953 15.8125 10.4219 15.5 9.99219 15.5C8.54688 15.5 7.375 16.5156 7.375 17.7656V18.5078C7.375 18.5469 7.375 18.5859 7.375 18.625H3C2.64844 18.625 2.375 18.3516 2.375 18V5.5C2.375 5.1875 2.64844 4.875 3 4.875H8.625V6.75H14.875V4.875H20.5C20.8125 4.875 21.125 5.1875 21.125 5.5V18ZM11.75 9.25C10.3438 9.25 9.25 10.3828 9.25 11.75C9.25 13.1562 10.3438 14.25 11.75 14.25C13.1172 14.25 14.25 13.1562 14.25 11.75C14.25 10.3828 13.1172 9.25 11.75 9.25Z" fill="currentColor"/>
</svg>
