<svg width="14" height="17" viewBox="0 0 14 17" xmlns="http://www.w3.org/2000/svg">
    <path fill="currentColor" d="M9.78125 10.3704C8.875 10.3704 8.46875 10.8704 7 10.8704C5.5 10.8704 5.09375 10.3704 4.1875 10.3704C1.875 10.3704 0 12.2766 0 14.5891V15.3704C0 16.2141 0.65625 16.8704 1.5 16.8704H12.5C13.3125 16.8704 14 16.2141 14 15.3704V14.5891C14 12.2766 12.0938 10.3704 9.78125 10.3704ZM12.5 15.3704H1.5V14.5891C1.5 13.0891 2.6875 11.8704 4.1875 11.8704C4.65625 11.8704 5.375 12.3704 7 12.3704C8.59375 12.3704 9.3125 11.8704 9.78125 11.8704C11.2812 11.8704 12.5 13.0891 12.5 14.5891V15.3704ZM7 9.87036C9.46875 9.87036 11.5 7.87036 11.5 5.37036C11.5 2.90161 9.46875 0.870361 7 0.870361C4.5 0.870361 2.5 2.90161 2.5 5.37036C2.5 7.87036 4.5 9.87036 7 9.87036ZM7 2.37036C8.625 2.37036 10 3.74536 10 5.37036C10 7.02661 8.625 8.37036 7 8.37036C5.34375 8.37036 4 7.02661 4 5.37036C4 3.74536 5.34375 2.37036 7 2.37036Z"/>
</svg>
