<svg width="24" height="19" viewBox="0 0 24 19" xmlns="http://www.w3.org/2000/svg">
    <path fill="currentColor" d="M22.8965 8.36816H16.1465C15.8301 8.36816 15.584 8.64941 15.584 8.93066V9.49316C15.584 9.80957 15.8301 10.0557 16.1465 10.0557H22.8965C23.1777 10.0557 23.459 9.80957 23.459 9.49316V8.93066C23.459 8.64941 23.1777 8.36816 22.8965 8.36816ZM11.9629 11.4619C10.9434 11.4619 10.4863 12.0244 8.83398 12.0244C7.14648 12.0244 6.68945 11.4619 5.66992 11.4619C3.06836 11.4619 0.958984 13.6064 0.958984 16.208V17.0869C0.958984 18.0361 1.69727 18.7744 2.64648 18.7744H15.0215C15.9355 18.7744 16.709 18.0361 16.709 17.0869V16.208C16.709 13.6064 14.5645 11.4619 11.9629 11.4619ZM15.0215 17.0869H2.64648V16.208C2.64648 14.5205 3.98242 13.1494 5.66992 13.1494C6.19727 13.1494 7.00586 13.7119 8.83398 13.7119C10.627 13.7119 11.4355 13.1494 11.9629 13.1494C13.6504 13.1494 15.0215 14.5205 15.0215 16.208V17.0869ZM8.83398 10.8994C11.6113 10.8994 13.8965 8.64941 13.8965 5.83691C13.8965 3.05957 11.6113 0.774414 8.83398 0.774414C6.02148 0.774414 3.77148 3.05957 3.77148 5.83691C3.77148 8.64941 6.02148 10.8994 8.83398 10.8994ZM8.83398 2.46191C10.6621 2.46191 12.209 4.00879 12.209 5.83691C12.209 7.7002 10.6621 9.21191 8.83398 9.21191C6.9707 9.21191 5.45898 7.7002 5.45898 5.83691C5.45898 4.00879 6.9707 2.46191 8.83398 2.46191Z"/>
</svg>
