<?xml version="1.0" standalone="no"?>
<!DOCTYPE svg PUBLIC "-//W3C//DTD SVG 20010904//EN"
 "http://www.w3.org/TR/2001/REC-SVG-20010904/DTD/svg10.dtd">
<svg version="1.0" xmlns="http://www.w3.org/2000/svg"
 width="512.000000pt" height="512.000000pt" viewBox="0 0 512.000000 512.000000"
 preserveAspectRatio="xMidYMid meet">
<metadata>
Created by potrace 1.14, written by Peter Selinger 2001-2017
</metadata>
<g transform="translate(0.000000,512.000000) scale(0.100000,-0.100000)"
fill="#000000" stroke="none">
<path d="M1380 4939 c-33 -13 -68 -47 -86 -81 -18 -35 -18 -101 0 -136 8 -15
185 -180 395 -367 210 -187 381 -343 381 -347 0 -4 -386 -9 -858 -10 l-858 -3
-78 -39 c-137 -67 -235 -192 -265 -334 -8 -37 -11 -497 -11 -1545 0 -1625 -3
-1543 56 -1658 54 -107 172 -203 286 -233 58 -16 237 -17 2243 -14 l2180 3 79
38 c133 63 228 179 261 318 22 96 23 3015 0 3102 -43 164 -169 299 -326 348
-58 18 -104 19 -895 19 -459 0 -834 3 -834 8 0 4 169 160 376 347 207 187 382
352 390 367 60 116 -59 258 -182 218 -26 -9 -193 -151 -552 -471 -284 -253
-519 -459 -522 -459 -4 0 -229 198 -501 441 -272 243 -509 453 -527 467 -37
28 -111 39 -152 21z m3327 -1271 c18 -10 45 -35 60 -55 l28 -36 3 -1480 c2
-1461 2 -1481 -18 -1521 -11 -23 -36 -52 -57 -66 l-37 -25 -2125 0 c-1999 0
-2128 1 -2158 17 -17 10 -42 32 -55 50 l-23 33 -3 1475 c-2 980 1 1487 7 1510
13 45 65 95 111 108 23 7 773 10 2135 9 1979 -2 2102 -3 2132 -19z"/>
<path d="M2409 3100 c-284 -27 -543 -120 -785 -281 -180 -121 -383 -333 -501
-524 -115 -187 -113 -222 24 -435 161 -248 395 -458 658 -590 281 -140 581
-199 878 -172 237 22 385 64 602 172 302 149 560 399 729 702 67 120 54 179
-84 384 -263 393 -700 672 -1150 733 -113 15 -275 20 -371 11z m323 -270 c274
-67 487 -284 555 -568 23 -96 20 -257 -6 -355 -112 -426 -571 -668 -986 -520
-304 109 -498 384 -499 708 0 138 20 220 81 345 40 80 61 109 138 185 102 102
183 154 300 191 138 44 275 48 417 14z"/>
<path d="M2465 2593 c-45 -7 -48 -15 -24 -68 60 -136 -13 -289 -159 -331 -61
-18 -113 -14 -179 16 l-42 19 -7 -35 c-12 -65 2 -215 25 -276 48 -124 165
-241 289 -289 86 -33 238 -38 330 -10 130 39 247 141 306 265 34 72 45 126 46
217 0 133 -46 245 -142 345 -116 121 -269 172 -443 147z"/>
</g>
</svg>
